<svg width="35" height="25" viewBox="0 0 35 25" fill="none" xmlns="http://www.w3.org/2000/svg">
<path d="M0 22.9167C0 24.0673 0.93274 25 2.08333 25H32.9167C34.0673 25 35 24.0673 35 22.9167C35 21.7661 34.0673 20.8333 32.9167 20.8333H2.08333C0.932739 20.8333 0 21.7661 0 22.9167ZM0 12.5C0 13.6506 0.93274 14.5833 2.08333 14.5833H32.9167C34.0673 14.5833 35 13.6506 35 12.5C35 11.3494 34.0673 10.4167 32.9167 10.4167H2.08333C0.932739 10.4167 0 11.3494 0 12.5ZM2.08333 0C0.932739 0 0 0.93274 0 2.08333C0 3.23393 0.93274 4.16667 2.08333 4.16667H32.9167C34.0673 4.16667 35 3.23393 35 2.08333C35 0.93274 34.0673 0 32.9167 0H2.08333Z" fill="white" fill-opacity="0.841528"/>
</svg>
