<svg width="79" height="67" viewBox="0 0 79 67" fill="none" xmlns="http://www.w3.org/2000/svg">
<g clip-path="url(#clip0_65_188)">
<path d="M40.245 39.0458L23.0943 39.3315C22.8236 39.3366 22.5545 39.291 22.3024 39.1974C22.0503 39.1038 21.8201 38.9641 21.6251 38.7861C21.4301 38.6082 21.2741 38.3955 21.166 38.1604C21.0578 37.9252 20.9997 37.6722 20.995 37.4157C20.9902 37.1593 21.0389 36.9045 21.1382 36.6658C21.2376 36.4272 21.3856 36.2095 21.5739 36.0252C21.7622 35.8409 21.987 35.6935 22.2354 35.5916C22.4839 35.4897 22.7512 35.4352 23.0219 35.4312L40.1726 35.1456C40.4283 35.1413 40.6753 35.2335 40.8593 35.4017C41.0433 35.57 41.1492 35.8006 41.1536 36.0428L41.1921 38.1165C41.1964 38.3482 41.1076 38.5727 40.9437 38.7446C40.7799 38.9166 40.5531 39.0231 40.3094 39.0427C40.2881 39.0444 40.2666 39.0454 40.245 39.0458Z" fill="#E36363"/>
<path d="M36.9329 39.5755L22.8622 40.1839C22.7357 40.1894 22.6093 40.1712 22.4902 40.1304C22.3711 40.0896 22.2617 40.027 22.1682 39.9462C22.0746 39.8653 21.9988 39.7678 21.9451 39.6592C21.8914 39.5506 21.8607 39.433 21.855 39.3132L21.706 36.2231C21.6944 35.9811 21.7847 35.7446 21.9571 35.5657C22.1295 35.3868 22.3698 35.28 22.6253 35.269L36.696 34.6605C36.8225 34.655 36.9489 34.6732 37.068 34.714C37.1871 34.7548 37.2965 34.8174 37.39 34.8982C37.4835 34.9791 37.5593 35.0766 37.6131 35.1852C37.6668 35.2938 37.6975 35.4114 37.7032 35.5312L37.8521 38.6213C37.8632 38.8573 37.7775 39.0882 37.6129 39.2656C37.4484 39.4431 37.2177 39.5533 36.9692 39.5733C36.9572 39.5742 36.945 39.575 36.9329 39.5755Z" fill="#2F2E41"/>
<path d="M13.1382 66.0866V48.8006C13.1385 48.5584 13.2401 48.3262 13.4209 48.155C13.6017 47.9838 13.8468 47.8874 14.1024 47.8872H16.2919C16.5475 47.8874 16.7926 47.9838 16.9734 48.155C17.1541 48.3262 17.2558 48.5584 17.2561 48.8006V66.0866C17.2558 66.3288 17.1541 66.5609 16.9734 66.7322C16.7926 66.9034 16.5475 66.9997 16.2919 67H14.1024C13.8468 66.9997 13.6017 66.9034 13.4209 66.7322C13.2401 66.5609 13.1385 66.3288 13.1382 66.0866Z" fill="#E36363"/>
<path d="M18.8838 66.0866V48.8006C18.8841 48.5584 18.9858 48.3262 19.1665 48.155C19.3473 47.9838 19.5924 47.8874 19.848 47.8872H22.0375C22.2931 47.8874 22.5382 47.9838 22.719 48.155C22.8998 48.3262 23.0014 48.5584 23.0017 48.8006V66.0866C23.0014 66.3288 22.8998 66.5609 22.719 66.7322C22.5382 66.9034 22.2931 66.9997 22.0375 67H19.848C19.5924 66.9997 19.3473 66.9034 19.1665 66.7322C18.9858 66.5609 18.8841 66.3288 18.8838 66.0866Z" fill="#E36363"/>
<path d="M19.4556 29.8476C23.6339 29.8476 27.021 26.639 27.021 22.681C27.021 18.723 23.6339 15.5144 19.4556 15.5144C15.2774 15.5144 11.8902 18.723 11.8902 22.681C11.8902 26.639 15.2774 29.8476 19.4556 29.8476Z" fill="#E36363"/>
<path d="M23.5507 25.1277C23.7941 25.0519 24.0175 24.9277 24.2059 24.7634C24.3308 24.646 24.427 24.5042 24.488 24.3479C24.5489 24.1916 24.573 24.0246 24.5586 23.8585C24.5507 23.7402 24.514 23.6253 24.4514 23.5226C24.3888 23.42 24.302 23.3324 24.1978 23.2668C23.9272 23.1024 23.5654 23.1019 23.1969 23.2557L23.2109 20.458L22.9142 20.4567L22.8978 23.7457L23.1264 23.6095C23.3915 23.4518 23.77 23.3408 24.0375 23.5034C24.1036 23.5463 24.1584 23.6031 24.1975 23.6694C24.2367 23.7357 24.2592 23.8096 24.2632 23.8854C24.2732 24.0091 24.255 24.1334 24.2098 24.2498C24.1645 24.3662 24.0933 24.472 24.001 24.5601C23.6734 24.8565 23.1955 24.9492 22.6504 25.032L22.6974 25.3095C22.987 25.2732 23.2726 25.2123 23.5507 25.1277Z" fill="#2F2E41"/>
<path d="M26.2692 20.3167L24.6851 20.5148L24.7239 20.7934L26.3081 20.5952L26.2692 20.3167Z" fill="#2F2E41"/>
<path d="M21.269 20.9424L19.6849 21.1406L19.7237 21.4191L21.3079 21.221L21.269 20.9424Z" fill="#2F2E41"/>
<path d="M3.40517 22.115L14.2673 34.691C14.4387 34.8892 14.5671 35.1175 14.6453 35.3627C14.7235 35.608 14.75 35.8654 14.7231 36.1204C14.6963 36.3753 14.6166 36.6227 14.4888 36.8485C14.361 37.0743 14.1875 37.274 13.9782 37.4362C13.7688 37.5984 13.5278 37.72 13.2689 37.794C13.01 37.868 12.7382 37.8929 12.4691 37.8674C12.2 37.8418 11.9388 37.7663 11.7005 37.6451C11.4622 37.5239 11.2515 37.3595 11.0803 37.1611L0.218119 24.5851C0.137928 24.4923 0.0778218 24.3854 0.0412386 24.2705C0.00465544 24.1557 -0.00769166 24.0352 0.00490421 23.9158C0.0175001 23.7965 0.0547901 23.6806 0.114647 23.5749C0.174504 23.4692 0.255755 23.3757 0.353758 23.2998L2.04829 21.9864C2.24622 21.833 2.50037 21.7604 2.75483 21.7845C3.00929 21.8086 3.24322 21.9275 3.40516 22.115H3.40517Z" fill="#E36363"/>
<path d="M7.02777 24.9219L15.9472 35.2487C16.0274 35.3415 16.0875 35.4484 16.1241 35.5632C16.1606 35.678 16.173 35.7986 16.1604 35.9179C16.1478 36.0373 16.1105 36.1531 16.0506 36.2588C15.9908 36.3645 15.9095 36.458 15.8115 36.5339L12.9172 38.7772C12.8192 38.8532 12.7064 38.9101 12.5851 38.9448C12.4639 38.9794 12.3367 38.9911 12.2107 38.9792C12.0847 38.9672 11.9624 38.9319 11.8508 38.8752C11.7392 38.8185 11.6405 38.7415 11.5603 38.6487L2.6409 28.322C2.47925 28.1344 2.40275 27.8937 2.42817 27.6528C2.4536 27.4118 2.57889 27.1902 2.77654 27.0367L5.67092 24.7934C5.86885 24.64 6.12299 24.5673 6.37744 24.5914C6.6319 24.6155 6.86582 24.7344 7.02776 24.9219L7.02777 24.9219Z" fill="#2F2E41"/>
<path d="M68.8668 12.3676C68.7577 12.1223 68.5751 11.9126 68.3415 11.7646C68.108 11.6166 67.8337 11.5367 67.5527 11.5348H41.3242C40.9472 11.535 40.5857 11.6769 40.3191 11.9295C40.0525 12.182 39.9027 12.5245 39.9025 12.8816V44.3138C39.9027 44.6709 40.0525 45.0134 40.3191 45.2659C40.5857 45.5185 40.9472 45.6604 41.3242 45.6606H67.5537C67.9306 45.6601 68.292 45.5181 68.5585 45.2656C68.825 45.0131 68.975 44.6708 68.9755 44.3138V12.8816C68.9761 12.7052 68.9395 12.5304 68.8677 12.3676H68.8668ZM68.6588 44.3138C68.6584 44.5916 68.5418 44.8579 68.3344 45.0543C68.1271 45.2507 67.846 45.3612 67.5527 45.3615H41.3242C41.031 45.3615 40.7497 45.2511 40.5423 45.0547C40.3349 44.8582 40.2183 44.5918 40.2182 44.314V12.8818C40.2186 12.604 40.3352 12.3377 40.5426 12.1413C40.7499 11.9449 41.031 11.8344 41.3242 11.834H67.5537C67.7746 11.8348 67.9902 11.898 68.1731 12.0153C68.3559 12.1327 68.4977 12.2991 68.5803 12.4931C68.5964 12.5318 68.6103 12.5713 68.6219 12.6113C68.647 12.6995 68.6597 12.7905 68.6597 12.8818L68.6588 44.3138Z" fill="#3F3D56"/>
<path d="M63.3932 18.9557H55.4928C55.4098 18.9558 55.3275 18.9404 55.2507 18.9104C55.1739 18.8804 55.1041 18.8363 55.0453 18.7807C54.9865 18.7251 54.9398 18.659 54.908 18.5863C54.8762 18.5136 54.8598 18.4357 54.8598 18.357C54.8598 18.2783 54.8762 18.2003 54.908 18.1276C54.9398 18.0549 54.9865 17.9889 55.0453 17.9333C55.1041 17.8777 55.1739 17.8336 55.2507 17.8035C55.3275 17.7735 55.4098 17.7581 55.4928 17.7582H63.3932C63.4763 17.7581 63.5586 17.7735 63.6354 17.8035C63.7122 17.8336 63.782 17.8777 63.8408 17.9333C63.8996 17.9889 63.9462 18.0549 63.9781 18.1276C64.0099 18.2003 64.0263 18.2783 64.0263 18.357C64.0263 18.4357 64.0099 18.5136 63.9781 18.5863C63.9462 18.659 63.8996 18.7251 63.8408 18.7807C63.782 18.8363 63.7122 18.8804 63.6354 18.9104C63.5586 18.9404 63.4763 18.9558 63.3932 18.9557Z" fill="#3F3D56"/>
<path d="M63.3932 22.099H55.4928C55.4098 22.0991 55.3275 22.0837 55.2507 22.0537C55.1739 22.0236 55.1041 21.9796 55.0453 21.9239C54.9865 21.8683 54.9398 21.8023 54.908 21.7296C54.8762 21.6569 54.8598 21.5789 54.8598 21.5002C54.8598 21.4215 54.8762 21.3436 54.908 21.2709C54.9398 21.1982 54.9865 21.1322 55.0453 21.0765C55.1041 21.0209 55.1739 20.9769 55.2507 20.9468C55.3275 20.9168 55.4098 20.9014 55.4928 20.9015H63.3932C63.4763 20.9014 63.5586 20.9168 63.6354 20.9468C63.7122 20.9769 63.782 21.0209 63.8408 21.0765C63.8996 21.1322 63.9462 21.1982 63.9781 21.2709C64.0099 21.3436 64.0263 21.4215 64.0263 21.5002C64.0263 21.5789 64.0099 21.6569 63.9781 21.7296C63.9462 21.8023 63.8996 21.8683 63.8408 21.9239C63.782 21.9796 63.7122 22.0236 63.6354 22.0537C63.5586 22.0837 63.4763 22.0991 63.3932 22.099Z" fill="#3F3D56"/>
<path d="M51.4392 23.8891H45.6656C45.4771 23.8889 45.2963 23.8179 45.163 23.6916C45.0297 23.5653 44.9547 23.3941 44.9545 23.2155V16.7615C44.9547 16.5829 45.0297 16.4116 45.163 16.2854C45.2963 16.1591 45.4771 16.088 45.6656 16.0879H51.4392C51.6277 16.088 51.8085 16.1591 51.9418 16.2854C52.0751 16.4116 52.1501 16.5829 52.1503 16.7615V23.2155C52.1501 23.3941 52.0751 23.5653 51.9418 23.6916C51.8085 23.8179 51.6277 23.8889 51.4392 23.8891Z" fill="#E36363"/>
<path d="M63.3384 28.5351H45.4836C45.3159 28.5351 45.1552 28.472 45.0366 28.3597C44.9181 28.2474 44.8515 28.0952 44.8515 27.9364C44.8515 27.7776 44.9181 27.6253 45.0366 27.513C45.1552 27.4007 45.3159 27.3376 45.4836 27.3376H63.3384C63.5061 27.3376 63.6668 27.4007 63.7853 27.513C63.9039 27.6253 63.9705 27.7776 63.9705 27.9364C63.9705 28.0952 63.9039 28.2474 63.7853 28.3597C63.6668 28.472 63.5061 28.5351 63.3384 28.5351Z" fill="#CCCCCC"/>
<path d="M63.3384 31.6784H45.4836C45.3161 31.6781 45.1556 31.6149 45.0373 31.5027C44.919 31.3904 44.8525 31.2383 44.8525 31.0796C44.8525 30.921 44.919 30.7689 45.0373 30.6566C45.1556 30.5443 45.3161 30.4811 45.4836 30.4809H63.3384C63.4215 30.4808 63.5038 30.4962 63.5806 30.5262C63.6574 30.5562 63.7272 30.6003 63.786 30.6559C63.8448 30.7115 63.8914 30.7776 63.9233 30.8503C63.9551 30.923 63.9715 31.0009 63.9715 31.0796C63.9715 31.1583 63.9551 31.2363 63.9233 31.309C63.8914 31.3817 63.8448 31.4477 63.786 31.5033C63.7272 31.5589 63.6574 31.603 63.5806 31.6331C63.5038 31.6631 63.4215 31.6785 63.3384 31.6784Z" fill="#CCCCCC"/>
<path d="M63.3384 34.8216H45.4836C45.3161 34.8214 45.1556 34.7582 45.0373 34.6459C44.919 34.5337 44.8525 34.3815 44.8525 34.2229C44.8525 34.0643 44.919 33.9121 45.0373 33.7999C45.1556 33.6876 45.3161 33.6244 45.4836 33.6242H63.3384C63.4215 33.624 63.5038 33.6394 63.5806 33.6695C63.6574 33.6995 63.7272 33.7436 63.786 33.7992C63.8448 33.8548 63.8914 33.9209 63.9233 33.9936C63.9551 34.0663 63.9715 34.1442 63.9715 34.2229C63.9715 34.3016 63.9551 34.3795 63.9233 34.4522C63.8914 34.5249 63.8448 34.591 63.786 34.6466C63.7272 34.7022 63.6574 34.7463 63.5806 34.7763C63.5038 34.8064 63.4215 34.8218 63.3384 34.8216Z" fill="#CCCCCC"/>
<path d="M63.3384 37.9649H45.4836C45.3161 37.9647 45.1556 37.9015 45.0373 37.7892C44.919 37.677 44.8525 37.5248 44.8525 37.3662C44.8525 37.2075 44.919 37.0554 45.0373 36.9431C45.1556 36.8309 45.3161 36.7677 45.4836 36.7674H63.3384C63.4215 36.7673 63.5038 36.7827 63.5806 36.8127C63.6574 36.8428 63.7272 36.8869 63.786 36.9425C63.8448 36.9981 63.8914 37.0641 63.9233 37.1368C63.9551 37.2095 63.9715 37.2875 63.9715 37.3662C63.9715 37.4449 63.9551 37.5228 63.9233 37.5955C63.8914 37.6682 63.8448 37.7343 63.786 37.7899C63.7272 37.8455 63.6574 37.8896 63.5806 37.9196C63.5038 37.9496 63.4215 37.965 63.3384 37.9649Z" fill="#CCCCCC"/>
<path d="M63.3384 41.1082H45.4836C45.3161 41.1079 45.1556 41.0447 45.0373 40.9325C44.919 40.8202 44.8525 40.6681 44.8525 40.5094C44.8525 40.3508 44.919 40.1987 45.0373 40.0864C45.1556 39.9741 45.3161 39.9109 45.4836 39.9107H63.3384C63.4215 39.9106 63.5038 39.926 63.5806 39.956C63.6574 39.986 63.7272 40.0301 63.786 40.0857C63.8448 40.1413 63.8914 40.2074 63.9233 40.2801C63.9551 40.3528 63.9715 40.4307 63.9715 40.5094C63.9715 40.5881 63.9551 40.6661 63.9233 40.7388C63.8914 40.8115 63.8448 40.8775 63.786 40.9331C63.7272 40.9887 63.6574 41.0328 63.5806 41.0629C63.5038 41.0929 63.4215 41.1083 63.3384 41.1082Z" fill="#CCCCCC"/>
<path d="M69.63 17.1427C74.6273 17.1427 78.6784 13.3052 78.6784 8.57133C78.6784 3.83752 74.6273 0 69.63 0C64.6327 0 60.5817 3.83752 60.5817 8.57133C60.5817 13.3052 64.6327 17.1427 69.63 17.1427Z" fill="#E36363"/>
<path d="M69.4548 14.4714C70.0428 14.4714 70.5195 14.0198 70.5195 13.4628C70.5195 12.9058 70.0428 12.4543 69.4548 12.4543C68.8668 12.4543 68.3902 12.9058 68.3902 13.4628C68.3902 14.0198 68.8668 14.4714 69.4548 14.4714Z" fill="white"/>
<path d="M69.3408 2.93852C68.5381 2.94606 67.7703 3.25001 67.2007 3.78568C66.6311 4.32135 66.3046 5.04644 66.2907 5.80667C66.2905 5.82122 66.2904 5.92354 66.2904 6.05737C66.2905 6.25358 66.3727 6.44176 66.5192 6.58051C66.6657 6.71926 66.8643 6.79722 67.0714 6.79725C67.2787 6.7972 67.4775 6.71916 67.6241 6.58028C67.7706 6.4414 67.8529 6.25307 67.8529 6.05671V6.05623C67.8528 5.96519 67.8527 5.90219 67.8527 5.89832C67.8527 5.65473 67.9196 5.41533 68.0468 5.20366C68.1741 4.99199 68.3573 4.81534 68.5784 4.69109C68.7996 4.56684 69.0511 4.49927 69.3082 4.49503C69.5653 4.49079 69.8192 4.55002 70.0448 4.6669C70.2704 4.78377 70.46 4.95427 70.5949 5.16162C70.7299 5.36897 70.8055 5.60602 70.8144 5.84946C70.8233 6.0929 70.7652 6.33434 70.6457 6.55004C70.5262 6.76573 70.3495 6.94824 70.133 7.07963L70.1333 7.07994C70.1333 7.07994 69.0217 7.75785 68.6827 8.68782L68.683 8.68788C68.6234 8.8784 68.5932 9.07607 68.5934 9.27477C68.5934 9.35645 68.5985 10.0711 68.6083 10.6512C68.6117 10.8513 68.698 11.0422 68.8487 11.1825C68.9993 11.3229 69.2022 11.4015 69.4135 11.4015C69.5192 11.4015 69.624 11.3818 69.7217 11.3434C69.8194 11.3051 69.9082 11.2489 69.9829 11.178C70.0577 11.1072 70.117 11.0231 70.1575 10.9305C70.198 10.838 70.2188 10.7388 70.2188 10.6386L70.2188 10.6339C70.2154 10.1027 70.2135 9.4841 70.2135 9.43921C70.2135 8.86818 70.7951 8.29923 71.2728 7.9282C71.8257 7.504 72.2143 6.91792 72.3776 6.26191C72.4128 6.12669 72.4322 5.98822 72.4355 5.84899C72.4355 5.46677 72.356 5.0883 72.2016 4.73517C72.0472 4.38205 71.8209 4.06119 71.5356 3.79092C71.2502 3.52065 70.9115 3.30626 70.5388 3.15999C70.166 3.01373 69.7664 2.93844 69.363 2.93844C69.3556 2.93844 69.3482 2.93847 69.3408 2.93852Z" fill="white"/>
<path d="M17.559 19.5101C18.9135 18.6666 20.6159 19.0461 22.1213 19.1563C23.4817 19.2558 25.094 19.1577 26.0508 18.1049C27.0462 17.0096 26.963 15.3834 26.1389 14.2249C25.3277 13.0845 23.9812 12.3645 22.5567 12.1746C21.7675 12.0651 20.9628 12.1124 20.1939 12.3136C19.425 12.5147 18.7087 12.8653 18.0907 13.343L18.5748 13.5329C18.2927 10.9779 16.3096 8.66818 13.6489 8.04167C10.9568 7.40777 7.94628 8.48964 6.51003 10.7634C5.09411 13.005 5.26185 16.1329 7.2999 17.9956C8.27866 18.8902 9.61005 19.346 10.9612 19.1028C12.2073 18.8785 13.3145 18.018 13.5477 16.8028C13.7639 15.6764 13.2916 14.3969 12.1349 13.9049C11.8184 13.7651 11.4725 13.6952 11.1234 13.7005C10.7742 13.7057 10.4308 13.7861 10.1192 13.9354C9.83694 14.0858 9.59846 14.3002 9.42507 14.5593C9.25168 14.8184 9.14879 15.1142 9.1256 15.4201C9.10404 15.7164 9.16774 16.0126 9.30992 16.2772C9.47049 16.5877 9.95983 16.3157 9.79969 16.0061C9.69624 15.7784 9.66684 15.5266 9.71524 15.283C9.76365 15.0395 9.88765 14.8151 10.0714 14.6386C10.4919 14.2225 11.1556 14.1534 11.7143 14.3235C12.7366 14.6348 13.188 15.7458 12.9953 16.6882C12.7795 17.7439 11.8282 18.4222 10.7449 18.5959C9.56694 18.7847 8.41815 18.3135 7.60041 17.521C5.88785 15.8613 5.73965 13.1882 6.8949 11.2073C8.06686 9.19784 10.5668 8.1188 12.948 8.45587C15.3026 8.78918 17.2418 10.5436 17.846 12.7068C17.9223 12.9778 17.9763 13.254 18.0076 13.5329C18.0095 13.5852 18.0273 13.6359 18.0588 13.6789C18.0903 13.7219 18.1341 13.7554 18.1852 13.7754C18.2362 13.7954 18.2922 13.8011 18.3466 13.7918C18.4009 13.7825 18.4513 13.7586 18.4917 13.7229C20.5038 12.14 23.8503 12.3097 25.5 14.3011C26.3091 15.2777 26.5475 16.7942 25.6027 17.7752C24.7031 18.7093 23.2091 18.7102 21.9804 18.6079C20.4086 18.477 18.6807 18.1694 17.2727 19.0462C16.9689 19.2353 17.2528 19.7008 17.559 19.5101V19.5101Z" fill="#2F2E41"/>
<path d="M23.6595 54.8287H12.3154C12.0898 54.8285 11.8736 54.7435 11.7141 54.5924C11.5546 54.4413 11.4649 54.2364 11.4646 54.0228V50.4407C11.4649 50.2271 11.5546 50.0222 11.7141 49.8711C11.8736 49.72 12.0898 49.635 12.3154 49.6348H23.6595C23.8851 49.635 24.1014 49.72 24.2609 49.8711C24.4204 50.0222 24.5101 50.2271 24.5103 50.4407V54.0228C24.5101 54.2364 24.4204 54.4413 24.2609 54.5924C24.1014 54.7435 23.8851 54.8285 23.6595 54.8287Z" fill="#2F2E41"/>
<path d="M24.0471 37.1684C23.692 35.4478 22.3125 34.0852 20.5222 33.5249C21.1687 33.3279 21.5798 33.036 21.5798 32.7097C21.5798 32.1162 20.2254 31.6351 18.5547 31.6351C16.884 31.6351 15.5296 32.1162 15.5296 32.7097C15.5296 33.0408 15.9518 33.3367 16.6148 33.5338C13.8699 34.309 11.8776 36.5719 11.8776 39.2367C11.8776 39.2367 11.0326 44.3676 10.3692 48.4691C9.94482 51.0931 12.2638 53.4385 15.2818 53.4385H25.8958C26.5911 53.4385 27.1567 52.9417 27.1567 52.3312C27.1567 52.3312 25.2009 42.7577 24.0471 37.1684Z" fill="#2F2E41"/>
</g>
<defs>
<clipPath id="clip0_65_188">
<rect width="78.5878" height="66.9231" fill="white" transform="scale(1.00115)"/>
</clipPath>
</defs>
</svg>
