<svg width="150" height="150" viewBox="0 0 150 150" fill="none" xmlns="http://www.w3.org/2000/svg">
<circle cx="75" cy="75" r="75" fill="white"/>
<path d="M55.459 129.26L57.3388 128.99L57.4105 119.679L54.6362 120.078L55.459 129.26Z" fill="#FFB8B8"/>
<path d="M61.162 130.679L55.2542 131.528L54.9952 128.638L58.6204 128.117C59.2258 128.03 59.8336 128.251 60.3103 128.731C60.7869 129.212 61.0933 129.913 61.162 130.679H61.162Z" fill="#2F2E41"/>
<path d="M36.1271 129.111H38.0189L38.9188 119.87L36.1268 119.87L36.1271 129.111Z" fill="#FFB8B8"/>
<path d="M41.6674 131.336L35.7218 131.336L35.7217 128.427L39.3701 128.427C39.9794 128.427 40.5637 128.733 40.9945 129.279C41.4254 129.824 41.6674 130.564 41.6674 131.336Z" fill="#2F2E41"/>
<path d="M49.7004 87.7856L50.7805 92.2353L56.6443 108.305L58.1874 123.548L54.6383 123.744L52.4779 109.673L45.0711 99.511L38.5901 126.089L35.6582 125.698C35.6582 125.698 38.1272 91.3032 41.522 87.7856C41.522 87.7856 47.0771 84.4634 49.7004 87.7856Z" fill="#2F2E41"/>
<path d="M44.9089 68.5854C47.002 68.5854 48.6989 66.4365 48.6989 63.7856C48.6989 61.1348 47.002 58.9858 44.9089 58.9858C42.8157 58.9858 41.1189 61.1348 41.1189 63.7856C41.1189 66.4365 42.8157 68.5854 44.9089 68.5854Z" fill="#FFB8B8"/>
<path d="M50.0861 88.6653C50.0861 88.6653 50.5491 68.7321 44.0681 70.1C37.5871 71.468 40.2875 90.7172 40.2875 90.7172C40.2875 90.7172 41.6763 94.2348 45.0711 90.3264C48.4659 86.4179 50.0861 88.6653 50.0861 88.6653Z" fill="#CCCCCC"/>
<path opacity="0.2" d="M41.1363 78.5029L42.6613 85.9062L44.9847 88.8488L41.7535 87.4924L41.1363 78.5029Z" fill="black"/>
<path d="M50.1341 97.0949C49.9208 96.997 49.7271 96.841 49.5666 96.638C49.406 96.435 49.2826 96.1899 49.205 95.92C49.1273 95.65 49.0974 95.3618 49.1172 95.0757C49.137 94.7895 49.2062 94.5123 49.3198 94.2636L45.7153 88.9787L48.5568 88.5103L51.544 93.6007C51.8613 93.87 52.0895 94.2774 52.1854 94.7456C52.2813 95.2137 52.2383 95.7102 52.0645 96.1409C51.8907 96.5716 51.5982 96.9066 51.2424 97.0825C50.8866 97.2583 50.4923 97.2627 50.1341 97.0949H50.1341Z" fill="#FFB8B8"/>
<path d="M45.7454 74.16L46.1513 84.2682L50.9349 92.0851L48.9288 94.0394L42.4478 85.8316C42.4478 85.8316 40.1332 75.865 41.8306 72.9336C42.4671 71.8344 43.1688 71.5321 43.7971 71.5836C44.3142 71.6381 44.7976 71.9301 45.1564 72.4047C45.5153 72.8792 45.7248 73.5035 45.7454 74.16Z" fill="#CCCCCC"/>
<path d="M44.4581 68.8292C44.4762 68.8087 44.4903 68.7831 44.4992 68.7545C44.5081 68.7258 44.5117 68.6949 44.5095 68.6643C44.5074 68.6336 44.4996 68.604 44.4869 68.5778C44.4741 68.5516 44.4567 68.5295 44.436 68.5133C44.0995 68.2494 43.8253 67.8755 43.6422 67.4309C43.4592 66.9864 43.374 66.4877 43.3958 65.9871C43.4175 65.4865 43.5453 65.0025 43.7657 64.5861C43.9861 64.1696 44.291 63.8361 44.6484 63.6204C45.7627 62.9476 47.2726 63.471 48.0963 62.1781C48.2638 61.9015 48.3823 61.5824 48.4436 61.2425C48.5049 60.9027 48.5076 60.5501 48.4516 60.2088C48.2739 58.9876 47.549 58.0808 46.7372 57.4593C45.74 56.6958 44.5938 56.3013 43.4286 56.3205C42.2634 56.3397 41.1258 56.7718 40.1445 57.5679C39.1633 58.3639 38.3778 59.4921 37.8769 60.8246C37.376 62.1571 37.1798 63.6406 37.3106 65.107C37.4153 66.2823 37.7017 67.6002 37.1499 68.5544C36.6642 69.3943 35.7475 69.5517 34.9422 69.7604C33.215 70.208 31.5487 71.2405 30.3766 72.9083C29.2045 74.5761 28.5792 76.9161 28.9326 79.1035C29.286 81.2909 30.7037 83.2133 32.4463 83.5523C33.8647 83.8283 35.3292 83.0655 36.3708 81.8154C37.4123 80.5653 38.0707 78.8771 38.486 77.1375C38.9789 75.0728 39.1733 72.8479 40.0631 71.0087C40.9339 69.2089 42.8105 67.9187 44.2812 68.856C44.3094 68.8747 44.3414 68.8821 44.3729 68.8773C44.4045 68.8725 44.4342 68.8558 44.4581 68.8292V68.8292Z" fill="#2F2E41"/>
<path d="M73.8431 131.579H26.4701C26.4292 131.579 26.3899 131.558 26.361 131.522C26.3321 131.485 26.3158 131.435 26.3158 131.383C26.3158 131.332 26.3321 131.282 26.361 131.245C26.3899 131.209 26.4292 131.188 26.4701 131.188H73.8431C73.884 131.188 73.9233 131.209 73.9522 131.245C73.9811 131.282 73.9974 131.332 73.9974 131.383C73.9974 131.435 73.9811 131.485 73.9522 131.522C73.9233 131.558 73.884 131.579 73.8431 131.579Z" fill="#3F3D56"/>
<path d="M121.699 65.043C121.69 70.5786 120.047 75.9099 117.092 79.9889C114.137 84.0678 110.084 86.5992 105.73 87.0856C101.376 87.5719 97.0355 85.9779 93.5623 82.6169C90.0892 79.256 87.7344 74.3712 86.9609 68.923C86.1874 63.4747 87.0512 57.8571 89.3824 53.1745C91.7136 48.4919 95.3436 45.083 99.5588 43.6181C103.774 42.1532 108.269 42.7382 112.161 45.2581C116.053 47.7779 119.06 52.0504 120.591 57.2355C120.629 57.3657 120.666 57.4959 120.702 57.6274V57.6286C120.864 58.2065 121.006 58.7951 121.129 59.3945C121.509 61.2388 121.7 63.1371 121.699 65.043Z" fill="#3F3D56"/>
<path d="M102.145 49.9831C101.353 49.4406 100.474 49.1344 99.5742 49.0878C98.6745 49.0412 97.7783 49.2554 96.9538 49.7141C96.228 50.1142 95.4636 50.8318 95.2215 52.1278C96.2008 51.3959 97.4686 52.5524 97.7206 54.4077L97.6618 54.4282C97.5287 55.7133 97.8258 57.1124 98.4011 57.9092C98.4439 57.5496 98.5493 57.2067 98.7098 56.9052C98.8704 56.6037 99.0819 56.3513 99.329 56.1663C99.7517 55.8144 100.219 55.5588 100.542 54.954C100.924 54.2369 101.021 53.189 101.173 52.233C101.325 51.277 101.614 50.2495 102.145 49.9831Z" fill="#6C63FF"/>
<path d="M96.6634 60.9187C96.3921 61.4346 96.0298 61.7582 95.7048 62.1612C95.3295 62.5936 95.0833 63.1765 95.0076 63.8118C94.9665 64.2607 95.0301 64.717 95.0213 65.1709C95.0125 65.6247 94.893 66.1357 94.6492 66.2485C94.2644 66.4246 93.9706 65.5193 93.575 65.4561C93.2607 65.4065 92.9777 66.0327 93.0688 66.5759C93.1599 67.119 93.5878 67.3596 93.8335 67.0049C94.0558 67.4774 93.8991 68.3343 93.5652 68.4794C93.53 68.777 93.4947 69.0734 93.4605 69.371C92.6164 68.6232 91.7636 67.8631 91.0458 66.7681C90.2476 65.5606 89.7525 64.0786 89.6241 62.5122C89.531 61.2535 89.6691 59.8138 89.2128 58.8453C88.8476 58.0703 88.2209 57.8991 87.6569 57.9475C87.5541 57.9562 87.4503 57.971 87.3475 57.9872C87.6801 56.722 88.1025 55.4976 88.6096 54.329C88.7244 54.2666 88.831 54.1825 88.9259 54.0797C89.4507 53.5155 89.6838 52.3734 90.1097 51.5834C90.1371 51.5326 90.1655 51.483 90.1949 51.4346C90.6306 50.7141 91.2142 50.3434 91.7782 49.9986C93.0267 49.231 94.3113 48.4535 95.6293 48.5601L95.2543 48.606C94.8166 50.1586 94.3786 51.7112 93.9402 53.2637C93.8737 53.5018 93.8064 53.7403 93.7385 53.9793C93.4898 54.8622 93.2333 55.8022 93.2715 56.7905C93.294 57.3758 93.4546 58.0008 93.7601 58.2017C94.045 58.3877 94.3564 58.1595 94.6315 57.9338C94.7481 57.8396 94.8636 57.7453 94.9801 57.6498C95.3982 57.3088 95.8614 56.9591 96.303 57.1873C96.7074 57.3956 97.006 58.0913 97.0628 58.8416C97.1149 59.5708 96.9744 60.3014 96.6634 60.9187Z" fill="#6C63FF"/>
<path d="M99.1501 71.5184C97.9289 70.5662 96.7078 69.614 95.4867 68.6619L95.5074 68.5942C94.7481 68.9605 94.4329 70.6696 94.5584 72.0674C94.6839 73.4651 95.1093 74.7146 95.3243 76.0766C95.6141 77.9403 95.5047 79.8683 95.0075 81.6605C96.6132 79.3787 98.0342 76.8989 99.2493 74.2581C99.419 73.9252 99.5484 73.562 99.633 73.1806C99.7226 72.7741 99.6907 72.34 99.5433 71.9614C99.4433 71.7747 99.3082 71.6224 99.1501 71.5184Z" fill="#6C63FF"/>
<path d="M94.3307 54.1953C94.1873 54.5852 94.1652 55.0292 94.2688 55.4388C94.3893 55.7689 94.6079 56.0253 94.8769 56.1521L95.5516 56.5757C95.7761 56.7166 96.0181 56.8589 96.2469 56.743C96.5229 56.6032 96.7142 56.0552 96.6647 55.5465C96.612 55.0051 96.3426 54.6327 96.0934 54.3156C95.7447 53.8719 95.396 53.4281 95.0472 52.9844L94.8507 53.2892C94.6381 53.5518 94.4623 53.8582 94.3307 54.1953Z" fill="#6C63FF"/>
<path d="M118.082 59.9822C118.385 60.0727 118.689 60.1632 118.993 60.2538C118.94 61.5521 118.431 62.7538 117.75 63.189C117.466 63.3701 117.15 63.437 116.915 63.7756C116.702 64.0831 116.594 64.5618 116.496 65.0193C116.322 65.818 116.149 66.6166 115.976 67.4151C115.79 68.2758 115.551 69.2319 115.067 69.5419C114.652 69.8085 114.177 69.4823 113.858 68.9355C113.538 68.3886 113.344 67.6533 113.155 66.9365C113.166 67.7178 112.88 68.4841 112.473 68.7557C112.066 69.0272 111.57 68.7817 111.298 68.1753C111.102 67.7401 111.021 67.1659 110.829 66.7244C110.637 66.283 110.235 66.03 110.025 66.4442C109.887 66.7195 109.905 67.1411 109.836 67.4908C109.802 67.723 109.711 67.9358 109.577 68.0996C109.442 68.2634 109.271 68.37 109.086 68.4047C108.917 68.3998 108.749 68.3512 108.595 68.2619C108.441 68.1726 108.302 68.0444 108.188 67.8851C107.589 67.1084 107.198 66.1114 107.073 65.0367C106.988 64.5215 106.999 63.9883 107.104 63.4792C107.225 62.9968 107.516 62.6248 107.804 62.7166C107.994 62.2081 107.619 61.5335 107.282 61.5931C106.943 61.6526 106.677 62.1126 106.399 62.4661C106.122 62.8195 105.734 63.0762 105.455 62.7252C105.462 62.8536 105.427 62.9798 105.36 63.0762C105.293 63.1725 105.198 63.2311 105.097 63.239C105.087 63.2398 105.077 63.2401 105.067 63.2399C104.881 63.1724 104.709 63.0567 104.56 62.9001C103.921 62.3954 103.109 62.7302 102.655 63.685C102.939 62.1548 103.355 60.3989 104.227 60.0392C104.584 59.8917 104.973 60.0132 105.309 59.7577C105.906 59.3051 106.026 57.595 105.511 56.8895C105.577 57.5566 105.564 58.3354 105.286 58.7917C105.008 59.2481 104.424 58.9504 104.46 58.2759C104.452 58.3707 104.42 58.46 104.37 58.5309C104.319 58.6018 104.253 58.6506 104.179 58.6704C104.105 58.6903 104.028 58.68 103.96 58.6412C103.891 58.6024 103.833 58.537 103.796 58.4544C103.611 58.0973 103.626 57.5132 103.758 57.0866C103.893 56.7003 104.087 56.3514 104.328 56.0599C104.793 55.4287 105.265 54.79 105.804 54.3932C106.344 53.9964 106.966 53.8625 107.507 54.2568C107.792 54.4651 108.042 54.8124 108.333 54.9959C108.402 55.0496 108.478 55.0857 108.557 55.1022C108.636 55.1187 108.717 55.1152 108.796 55.092C108.874 55.0688 108.948 55.0263 109.013 54.9669C109.079 54.9075 109.134 54.8323 109.176 54.7458L109.176 54.7458C109.18 54.7391 109.183 54.7324 109.186 54.7255C109.402 54.2444 109.301 53.5301 109.381 52.9287C109.525 51.866 110.364 51.3687 110.829 52.0706C110.482 51.9577 110.122 52.4785 110.079 53.1098C110.035 53.7409 110.287 54.3783 110.624 54.5693C111.189 54.8868 111.744 54.0881 112.172 53.3491C112.618 52.5753 113.065 51.8019 113.513 51.0289C113.585 50.8973 113.665 50.7737 113.753 50.6594C113.893 50.4862 114.08 50.3871 114.276 50.382C114.472 50.377 114.662 50.4664 114.808 50.6321C115.26 51.0996 115.472 52.0582 115.843 52.7179C116.382 53.6765 117.188 53.9096 117.938 54.0956C118.497 54.2333 119.056 54.3717 119.616 54.511C119.989 55.3902 120.315 56.3004 120.591 57.2355C119.564 57.8282 118.693 58.7815 118.082 59.9822Z" fill="#6C63FF"/>
<path d="M119.889 74.9026C119.47 75.9814 118.982 77.0153 118.43 77.9941C118.078 77.8031 117.699 78.1441 117.369 78.4641C117.024 78.7989 116.61 79.125 116.257 78.82C115.895 78.5075 115.779 77.6332 115.893 76.94C116.025 76.3006 116.255 75.7004 116.571 75.1742C116.865 74.6186 117.179 74.042 117.587 73.8262C117.997 73.6104 118.522 73.9155 118.642 74.6521L118.932 74.6397C118.769 74.357 118.854 73.7716 119.073 73.6687C119.324 73.5484 119.543 73.9862 119.692 74.3731C119.758 74.5479 119.826 74.724 119.889 74.9026Z" fill="#6C63FF"/>
<path d="M108.789 69.665C108.166 69.7146 107.672 68.7433 107.345 67.7878C107.017 66.8323 106.717 65.7396 106.155 65.2533C105.834 64.9754 105.468 64.9372 105.12 64.8026C104.922 64.7394 104.739 64.6174 104.586 64.4469C104.433 64.2763 104.314 64.062 104.24 63.8218L103.845 63.6196C103.292 63.9696 102.786 64.4267 102.344 64.9745C101.84 65.6531 101.526 66.5229 101.45 67.4498C101.375 68.4516 101.654 69.5686 102.174 69.945C102.586 70.2423 103.065 70.0549 103.482 70.3271C104.003 70.6672 104.312 71.6552 104.429 72.6307C104.546 73.6062 104.517 74.6199 104.6 75.6065C104.684 76.5931 104.915 77.6196 105.393 78.1252C105.99 78.7579 106.868 78.2322 107.136 77.0805C107.267 76.5156 107.263 75.8781 107.361 75.2917C107.534 74.259 108.002 73.4928 108.373 72.6457C108.744 71.7986 109.036 70.6481 108.789 69.665Z" fill="#6C63FF"/>
<path d="M102.633 59.5169C102.691 59.5847 102.745 59.6575 102.795 59.735C102.847 59.8478 102.873 59.9764 102.871 60.1068C102.87 60.2372 102.84 60.3645 102.785 60.475C102.86 60.4696 102.934 60.4445 103.001 60.4014C103.068 60.3583 103.127 60.298 103.174 60.2244C103.288 60.0604 103.388 59.882 103.473 59.692C103.513 59.6269 103.541 59.5518 103.556 59.4717C103.572 59.3916 103.573 59.3084 103.561 59.2275C103.532 59.1211 103.462 59.0757 103.413 58.9958C103.346 58.8393 103.299 58.6695 103.277 58.4935C103.25 58.3286 103.187 58.1765 103.095 58.0543C103.004 57.9321 102.887 57.8446 102.758 57.8018L102.79 57.8093C102.736 57.8493 102.694 57.9092 102.67 57.9809C102.645 58.0525 102.638 58.1322 102.651 58.2088C102.67 58.3636 102.748 58.492 102.74 58.6499C102.729 58.8768 102.55 58.9833 102.539 59.2103C102.537 59.3242 102.571 59.4343 102.633 59.5169Z" fill="#6C63FF"/>
<path d="M101.566 55.6603L101.568 55.6596C101.587 55.6375 101.605 55.6135 101.621 55.5879L101.566 55.6603Z" fill="#6C63FF"/>
<path d="M101.752 56.7257C101.827 56.6425 101.883 56.5349 101.912 56.4147C101.942 56.2944 101.945 56.166 101.921 56.0436C101.876 55.7856 101.716 55.6121 101.568 55.6597C101.525 55.7148 101.472 55.7551 101.414 55.7769C101.355 55.7988 101.293 55.8014 101.234 55.7845C101.142 55.7548 101.042 55.6781 100.963 55.7652C100.917 55.8303 100.886 55.9087 100.87 55.9934C100.841 56.1074 100.812 56.2213 100.783 56.3353C100.769 56.3761 100.765 56.4214 100.772 56.4649C100.778 56.4824 100.787 56.4977 100.798 56.5094C100.81 56.5211 100.824 56.5288 100.839 56.5318L101.366 56.7289C101.427 56.7642 101.493 56.7823 101.56 56.7817C101.626 56.7812 101.692 56.762 101.752 56.7257Z" fill="#6C63FF"/>
<path d="M115.034 71.4329C114.953 71.2642 114.871 71.0956 114.79 70.927C114.71 70.7317 114.601 70.5581 114.469 70.4158C114.411 70.3543 114.336 70.3245 114.261 70.3329C114.185 70.3414 114.116 70.3873 114.067 70.4606L114.067 70.4606L114.063 70.4672L114.073 70.5635C114.291 70.8592 114.439 71.2259 114.501 71.6224C114.52 71.7947 114.514 71.9731 114.53 72.1461C114.532 72.2264 114.546 72.3054 114.572 72.3787C114.597 72.452 114.634 72.5182 114.68 72.5733C114.809 72.6817 114.959 72.5219 115.05 72.327C115.132 72.1669 115.168 71.9767 115.154 71.7871C115.133 71.6599 115.093 71.5393 115.034 71.4329Z" fill="#6C63FF"/>
<path d="M116.31 71.6522C116.325 71.4943 116.315 71.3341 116.28 71.1814C116.274 70.9747 116.318 70.7706 116.404 70.5955C116.49 70.4302 116.556 70.2489 116.598 70.0582C116.615 69.9713 116.612 69.8797 116.588 69.7951C116.562 69.7185 116.496 69.6836 116.459 69.7442L116.539 69.8095C116.431 69.7851 116.32 69.7919 116.214 69.8294C116.154 69.8587 116.1 69.9059 116.057 69.9671C116.014 70.0282 115.984 70.1016 115.968 70.1809C115.955 70.3045 115.933 70.4265 115.903 70.5455C115.856 70.6698 115.763 70.7111 115.705 70.8202C115.666 70.9169 115.646 71.0246 115.647 71.1335C115.648 71.2424 115.671 71.3492 115.713 71.4442C115.786 71.5995 115.902 71.715 116.039 71.7681C116.136 71.8126 116.265 71.8149 116.31 71.6522Z" fill="#6C63FF"/>
<path d="M118.582 72.5205C118.617 72.6369 118.664 72.747 118.723 72.8477C118.831 72.9865 118.979 72.9012 119.111 72.8675C119.231 72.8435 119.353 72.861 119.466 72.9182C119.578 72.9754 119.677 73.07 119.75 73.1921C119.699 72.8689 119.587 72.566 119.424 72.3087C119.262 72.0515 119.053 71.8475 118.815 71.7139C118.505 71.5784 118.18 71.5139 117.852 71.5234L117.797 71.5415C117.939 72.0664 118.386 72.0547 118.582 72.5205Z" fill="#6C63FF"/>
<path d="M108.959 73.5935L108.96 73.5958L108.977 73.5562L108.959 73.5935Z" fill="#6C63FF"/>
<path d="M108.615 74.4388C108.54 74.6116 108.475 74.7914 108.421 74.9767C108.35 75.2768 108.303 75.5852 108.281 75.8971C108.264 76.0745 108.258 76.3011 108.346 76.3875C108.371 76.4087 108.402 76.4175 108.432 76.4124C108.462 76.4072 108.489 76.3884 108.509 76.3595C108.558 76.2942 108.598 76.2191 108.627 76.1373C108.799 75.7611 108.933 75.3586 109.025 74.9395C109.122 74.4949 109.099 74.0225 108.96 73.5962C108.845 73.8771 108.73 74.1579 108.615 74.4388Z" fill="#6C63FF"/>
<path d="M105.29 51.9297C105.344 51.9975 105.414 52.0435 105.489 52.0621C105.564 52.0807 105.642 52.071 105.713 52.0343C105.859 51.953 105.994 51.8404 106.111 51.7014C106.207 51.611 106.289 51.4978 106.352 51.3682C106.386 51.2907 106.408 51.2053 106.417 51.117C106.425 51.0286 106.42 50.939 106.401 50.8533C106.374 50.7712 106.331 50.6992 106.276 50.644C106.221 50.5888 106.156 50.5524 106.086 50.538C105.891 50.4647 105.696 50.3914 105.5 50.318L105.642 50.1568C105.496 50.058 105.336 50.2413 105.245 50.4683C105.187 50.6165 105.146 50.7748 105.124 50.9381C105.093 51.1087 105.092 51.2858 105.121 51.457C105.149 51.6283 105.207 51.7896 105.29 51.9297Z" fill="#6C63FF"/>
<path d="M108.737 50.4639C108.792 50.5408 108.869 50.5882 108.95 50.5966C109.032 50.605 109.113 50.5738 109.177 50.5092C109.232 50.4567 109.278 50.3901 109.312 50.3137C109.345 50.2372 109.366 50.1527 109.372 50.0656C109.385 49.8711 109.309 49.6549 109.201 49.6381L109.226 49.456C109.017 49.4082 108.76 49.3986 108.648 49.72C108.61 49.8431 108.598 49.9766 108.614 50.1071C108.63 50.2377 108.672 50.3607 108.737 50.4639Z" fill="#6C63FF"/>
<path d="M94.5316 63.5665C95.2515 63.5665 95.8351 62.5754 95.8351 61.3528C95.8351 60.1302 95.2515 59.1392 94.5316 59.1392C93.8117 59.1392 93.2281 60.1302 93.2281 61.3528C93.2281 62.5754 93.8117 63.5665 94.5316 63.5665Z" fill="#0A0909"/>
<path d="M118.352 90.977C118.975 90.7671 119.386 90.1525 119.27 89.6042C119.155 89.056 118.557 88.7817 117.935 88.9915C117.312 89.2014 116.901 89.816 117.017 90.3643C117.132 90.9125 117.73 91.1868 118.352 90.977Z" fill="#0A0909"/>
<path d="M110.73 91.1552C111.353 90.9453 111.764 90.3307 111.648 89.7824C111.533 89.2342 110.935 88.9599 110.313 89.1698C109.69 89.3797 109.279 89.9943 109.395 90.5425C109.51 91.0908 110.108 91.3651 110.73 91.1552Z" fill="#0A0909"/>
<path d="M119.706 82.9457C120.329 82.7358 120.74 82.1212 120.624 81.573C120.509 81.0247 119.911 80.7504 119.289 80.9603C118.667 81.1702 118.255 81.7848 118.371 82.333C118.486 82.8813 119.084 83.1556 119.706 82.9457Z" fill="#0A0909"/>
<path d="M121.954 79.5318C122.235 79.4877 122.423 79.0373 122.373 78.5257C122.322 78.0142 122.054 77.6353 121.773 77.6794C121.492 77.7235 121.305 78.174 121.355 78.6855C121.405 79.197 121.673 79.5759 121.954 79.5318Z" fill="#0A0909"/>
<path d="M122.524 73.4727C122.805 73.4286 122.992 72.9782 122.942 72.4666C122.892 71.9551 122.623 71.5762 122.342 71.6203C122.061 71.6644 121.874 72.1149 121.924 72.6264C121.974 73.1379 122.243 73.5169 122.524 73.4727Z" fill="#0A0909"/>
<path d="M114.84 85.1207C115.121 85.0766 115.308 84.6261 115.258 84.1146C115.208 83.6031 114.94 83.2241 114.659 83.2683C114.378 83.3124 114.191 83.7628 114.241 84.2744C114.291 84.7859 114.559 85.1648 114.84 85.1207Z" fill="#0A0909"/>
<path d="M118.694 86.8868C118.975 86.8427 119.162 86.3922 119.112 85.8807C119.062 85.3692 118.793 84.9903 118.512 85.0344C118.231 85.0785 118.044 85.5289 118.094 86.0405C118.144 86.552 118.413 86.9309 118.694 86.8868Z" fill="#0A0909"/>
<path d="M114.015 91.8902C114.296 91.8461 114.483 91.3956 114.433 90.8841C114.383 90.3726 114.114 89.9937 113.833 90.0378C113.552 90.0819 113.365 90.5324 113.415 91.0439C113.465 91.5554 113.734 91.9343 114.015 91.8902Z" fill="#0A0909"/>
<path d="M80.4647 82.8705C81.087 82.6606 81.4981 82.046 81.3828 81.4978C81.2675 80.9495 80.6695 80.6752 80.0472 80.8851C79.4249 81.095 79.0139 81.7096 79.1292 82.2578C79.2445 82.8061 79.8424 83.0804 80.4647 82.8705Z" fill="#0A0909"/>
<path d="M72.8424 83.0492C73.4647 82.8393 73.8757 82.2247 73.7604 81.6765C73.6451 81.1282 73.0472 80.8539 72.4249 81.0638C71.8025 81.2737 71.3915 81.8883 71.5068 82.4366C71.6221 82.9848 72.22 83.2591 72.8424 83.0492Z" fill="#0A0909"/>
<path d="M81.8191 74.8388C82.4414 74.6289 82.8524 74.0143 82.7372 73.466C82.6219 72.9178 82.0239 72.6435 81.4016 72.8534C80.7793 73.0632 80.3683 73.6778 80.4836 74.2261C80.5989 74.7744 81.1968 75.0487 81.8191 74.8388Z" fill="#0A0909"/>
<path d="M84.0669 71.4249C84.3479 71.3808 84.5351 70.9303 84.485 70.4188C84.435 69.9073 84.1666 69.5283 83.8856 69.5725C83.6046 69.6166 83.4174 70.067 83.4675 70.5786C83.5176 71.0901 83.786 71.469 84.0669 71.4249Z" fill="#0A0909"/>
<path d="M84.6361 65.3658C84.9171 65.3217 85.1043 64.8712 85.0542 64.3597C85.0041 63.8482 84.7357 63.4693 84.4547 63.5134C84.1738 63.5575 83.9866 64.0079 84.0367 64.5195C84.0867 65.031 84.3551 65.4099 84.6361 65.3658Z" fill="#0A0909"/>
<path d="M76.9527 77.0137C77.2337 76.9696 77.4209 76.5192 77.3708 76.0077C77.3207 75.4961 77.0523 75.1172 76.7713 75.1613C76.4904 75.2054 76.3032 75.6559 76.3532 76.1674C76.4033 76.679 76.6717 77.0579 76.9527 77.0137Z" fill="#0A0909"/>
<path d="M80.8063 78.7804C81.0873 78.7362 81.2745 78.2858 81.2244 77.7743C81.1743 77.2627 80.9059 76.8838 80.625 76.9279C80.344 76.972 80.1568 77.4225 80.2069 77.934C80.2569 78.4456 80.5253 78.8245 80.8063 78.7804Z" fill="#0A0909"/>
<path d="M76.1273 83.7838C76.4083 83.7397 76.5955 83.2892 76.5454 82.7777C76.4953 82.2661 76.2269 81.8872 75.9459 81.9313C75.6649 81.9755 75.4778 82.4259 75.5278 82.9374C75.5779 83.449 75.8463 83.8279 76.1273 83.7838Z" fill="#0A0909"/>
<path d="M126.774 45.7523C127.396 45.5425 127.807 44.9279 127.692 44.3796C127.577 43.8313 126.979 43.557 126.356 43.7669C125.734 43.9768 125.323 44.5914 125.438 45.1397C125.554 45.6879 126.152 45.9622 126.774 45.7523Z" fill="#0A0909"/>
<path d="M119.152 45.9315C119.774 45.7216 120.185 45.107 120.07 44.5588C119.954 44.0105 119.356 43.7362 118.734 43.9461C118.112 44.156 117.701 44.7706 117.816 45.3189C117.931 45.8671 118.529 46.1414 119.152 45.9315Z" fill="#0A0909"/>
<path d="M128.128 37.7206C128.751 37.5107 129.162 36.8961 129.046 36.3479C128.931 35.7996 128.333 35.5253 127.711 35.7352C127.088 35.9451 126.677 36.5597 126.793 37.1079C126.908 37.6562 127.506 37.9305 128.128 37.7206Z" fill="#0A0909"/>
<path d="M130.376 34.3072C130.657 34.2631 130.844 33.8126 130.794 33.3011C130.744 32.7896 130.476 32.4107 130.195 32.4548C129.914 32.4989 129.727 32.9493 129.777 33.4609C129.827 33.9724 130.095 34.3513 130.376 34.3072Z" fill="#0A0909"/>
<path d="M130.945 28.2481C131.226 28.204 131.413 27.7536 131.363 27.242C131.313 26.7305 131.045 26.3516 130.764 26.3957C130.483 26.4398 130.296 26.8903 130.346 27.4018C130.396 27.9133 130.664 28.2922 130.945 28.2481Z" fill="#0A0909"/>
<path d="M123.262 39.8961C123.543 39.852 123.73 39.4015 123.68 38.89C123.63 38.3784 123.361 37.9995 123.08 38.0437C122.799 38.0878 122.612 38.5382 122.662 39.0498C122.712 39.5613 122.981 39.9402 123.262 39.8961Z" fill="#0A0909"/>
<path d="M127.115 41.6627C127.396 41.6186 127.584 41.1681 127.534 40.6566C127.483 40.145 127.215 39.7661 126.934 39.8103C126.653 39.8544 126.466 40.3048 126.516 40.8163C126.566 41.3279 126.834 41.7068 127.115 41.6627Z" fill="#0A0909"/>
<path d="M122.436 46.6656C122.717 46.6215 122.905 46.171 122.854 45.6595C122.804 45.148 122.536 44.7691 122.255 44.8132C121.974 44.8573 121.787 45.3077 121.837 45.8193C121.887 46.3308 122.155 46.7097 122.436 46.6656Z" fill="#0A0909"/>
<path d="M78.1745 84.2434C76.9274 84.2434 76.1167 83.851 75.7578 83.0708C75.0502 81.5324 76.2354 78.833 79.2803 75.0476L79.5361 75.3776C76.7076 78.8939 75.4779 81.5434 76.0733 82.8381C76.4501 83.657 77.5714 83.9505 79.3167 83.6865C81.0493 83.4245 83.3455 82.6438 86.1413 81.3659C91.8972 78.7351 99.1186 74.2976 106.475 68.8706C113.831 63.4437 120.442 57.6774 125.088 52.6341C125.981 51.6652 126.791 50.7332 127.496 49.864C128.421 48.7509 129.275 47.5459 130.049 46.2606C131.091 44.4684 131.443 43.0882 131.066 42.2692C130.437 40.9013 127.793 41.0299 123.622 42.6319L123.516 42.1893C127.991 40.4708 130.638 40.4193 131.381 42.0365C131.844 43.0413 131.494 44.5547 130.343 46.5349C129.557 47.8405 128.69 49.0646 127.75 50.1953C127.04 51.0713 126.224 52.01 125.326 52.9852C120.663 58.0462 114.034 63.8297 106.659 69.2701C99.2839 74.7108 92.0413 79.161 86.2653 81.801C83.4434 83.0907 81.1201 83.8796 79.36 84.1456C78.9667 84.2077 78.5708 84.2404 78.1745 84.2434Z" fill="#3F3D56"/>
</svg>
