<svg width="160" height="160" viewBox="0 0 160 160" fill="none" xmlns="http://www.w3.org/2000/svg">
<g clip-path="url(#clip0_49_166)">
<path d="M81.4315 104.446C95.7742 104.446 107.401 92.8191 107.401 78.4765C107.401 64.1338 95.7742 52.5068 81.4315 52.5068C67.0889 52.5068 55.4619 64.1338 55.4619 78.4765C55.4619 92.8191 67.0889 104.446 81.4315 104.446Z" fill="#FFB6B6"/>
<path d="M66.5233 108.286L65.3501 96.4268L88.7789 92.0459L102.614 125.73L78.5534 153.399L61.4105 119.715L66.5233 108.286Z" fill="#FFB6B6"/>
<path d="M64.9737 102.363L70.0958 103.52C70.0958 103.52 66.0693 90.7522 67.436 89.5332C68.8027 88.3142 72.1518 90.235 72.1518 90.235L75.6712 94.1808L79.9581 89.8162C79.9581 89.8162 84.6122 84.0291 86.4345 82.4037C88.2567 80.7784 85.3297 74.7455 85.3297 74.7455C85.3297 74.7455 112.365 67.4555 102.305 54.3426C102.305 54.3426 96.4071 44.0615 94.4863 47.4106C92.5656 50.7598 90.2753 45.4407 90.2753 45.4407L83.2817 46.7706C83.2817 46.7706 69.4789 38.6321 56.3784 56.0427C43.278 73.4532 64.9737 102.363 64.9737 102.363H64.9737V102.363Z" fill="#2F2E41"/>
<path d="M130.274 142.241C116.081 153.748 98.5234 160 80.0001 160C63.0858 160 46.9745 154.785 33.4978 145.119C33.5219 144.866 33.5459 144.617 33.567 144.367C33.9249 140.457 34.2437 136.656 34.4542 133.504C35.2692 121.266 63.8196 113.11 63.8196 113.11C63.8196 113.11 63.9489 113.239 64.2076 113.465C65.7835 114.848 72.1805 119.865 83.3986 121.266C93.4016 122.517 96.6948 116.584 97.6903 113.742C97.991 112.875 98.0813 112.295 98.0813 112.295L127.447 126.163C129.362 128.899 130.111 134.794 130.259 141.42C130.265 141.693 130.271 141.964 130.274 142.241Z" fill="#6C63FF"/>
<path d="M136.568 23.4316C121.459 8.3218 101.368 0 80 0C58.6316 0 38.5414 8.3218 23.4316 23.4316C8.32182 38.5414 0 58.6316 0 80C0 99.5038 6.93235 117.943 19.6361 132.502C20.8481 133.895 22.1143 135.251 23.4316 136.568C23.7414 136.878 24.0541 137.188 24.3699 137.489C25.212 138.304 26.0692 139.101 26.9414 139.874C27.4707 140.346 28.006 140.809 28.5474 141.263C28.9714 141.621 29.3955 141.973 29.8256 142.319C29.8346 142.328 29.8406 142.334 29.8496 142.34C31.0436 143.302 32.2587 144.229 33.4977 145.119C46.9744 154.785 63.0857 160 80 160C98.5233 160 116.081 153.747 130.274 142.241C131.432 141.302 132.565 140.328 133.678 139.32C134.662 138.43 135.624 137.513 136.568 136.568C136.866 136.271 137.164 135.97 137.456 135.666C138.268 134.83 139.056 133.979 139.826 133.116C152.869 118.463 160 99.7804 160 80C160 58.6316 151.678 38.5414 136.568 23.4316V23.4316ZM139.63 132.367C138.878 133.221 138.108 134.063 137.32 134.884C136.093 136.162 134.827 137.401 133.519 138.595C133.023 139.053 132.52 139.498 132.012 139.94C131.435 140.442 130.851 140.935 130.259 141.42C125.588 145.254 120.472 148.562 115.002 151.257C112.839 152.325 110.623 153.296 108.355 154.165C99.5459 157.546 89.985 159.398 80 159.398C70.3639 159.398 61.1248 157.672 52.5744 154.514C49.0647 153.221 45.6722 151.684 42.415 149.925C41.9368 149.666 41.4617 149.405 40.9895 149.137C38.5053 147.729 36.1023 146.192 33.7955 144.532C33.7203 144.478 33.6421 144.421 33.5669 144.367C31.9248 143.182 30.3278 141.934 28.785 140.623C28.2196 140.144 27.6602 139.66 27.1098 139.164C26.2135 138.367 25.3354 137.546 24.4782 136.704C22.8542 135.113 21.3023 133.456 19.8196 131.732C7.84663 117.826 0.601504 99.7444 0.601504 80C0.601504 36.2195 36.2196 0.601504 80 0.601504C123.78 0.601504 159.398 36.2195 159.398 80C159.398 100.048 151.931 118.382 139.63 132.367Z" fill="#3F3D56"/>
</g>
<defs>
<clipPath id="clip0_49_166">
<rect width="160" height="160" fill="white"/>
</clipPath>
</defs>
</svg>
