<svg width="36" height="36" viewBox="0 0 36 36" fill="none" xmlns="http://www.w3.org/2000/svg">
<g clip-path="url(#clip0_49_180)">
<path d="M28.71 19.4101C28.77 18.9601 28.8 18.4951 28.8 18.0001C28.8 17.5201 28.77 17.0401 28.695 16.5901L31.74 14.2201C32.01 14.0101 32.085 13.6051 31.92 13.3051L29.04 8.3251C28.86 7.9951 28.485 7.8901 28.155 7.9951L24.57 9.4351C23.82 8.8651 23.025 8.3851 22.14 8.0251L21.6 4.2151C21.54 3.8551 21.24 3.6001 20.88 3.6001H15.12C14.76 3.6001 14.475 3.8551 14.415 4.2151L13.875 8.0251C12.99 8.3851 12.18 8.8801 11.445 9.4351L7.86004 7.9951C7.53004 7.8751 7.15504 7.9951 6.97504 8.3251L4.11004 13.3051C3.93004 13.6201 3.99004 14.0101 4.29004 14.2201L7.33504 16.5901C7.26004 17.0401 7.20004 17.5351 7.20004 18.0001C7.20004 18.4651 7.23004 18.9601 7.30504 19.4101L4.26004 21.7801C3.99004 21.9901 3.91504 22.3951 4.08004 22.6951L6.96004 27.6751C7.14004 28.0051 7.51504 28.1101 7.84504 28.0051L11.43 26.5651C12.18 27.1351 12.975 27.6151 13.86 27.9751L14.4 31.7851C14.475 32.1451 14.76 32.4001 15.12 32.4001H20.88C21.24 32.4001 21.54 32.1451 21.585 31.7851L22.125 27.9751C23.01 27.6151 23.82 27.1351 24.555 26.5651L28.14 28.0051C28.47 28.1251 28.845 28.0051 29.025 27.6751L31.905 22.6951C32.085 22.3651 32.01 21.9901 31.725 21.7801L28.71 19.4101ZM18 23.4001C15.03 23.4001 12.6 20.9701 12.6 18.0001C12.6 15.0301 15.03 12.6001 18 12.6001C20.97 12.6001 23.4 15.0301 23.4 18.0001C23.4 20.9701 20.97 23.4001 18 23.4001Z" fill="white"/>
</g>
<defs>
<clipPath id="clip0_49_180">
<rect width="36" height="36" fill="white"/>
</clipPath>
</defs>
</svg>
