<svg width="190" height="190" viewBox="0 0 190 190" fill="none" xmlns="http://www.w3.org/2000/svg">
<circle cx="95" cy="95" r="95" fill="white"/>
<g clip-path="url(#clip0_64_175)">
<path d="M156.231 27.5506H116.308C114.381 27.5505 112.512 28.3623 111.007 29.8525C109.502 31.3427 108.452 33.4226 108.028 35.7503L87.8558 146.573C87.6357 147.782 87.6318 149.036 87.8444 150.247C88.0569 151.458 88.4808 152.596 89.0862 153.583C89.6916 154.569 90.4639 155.38 91.3489 155.957C92.234 156.535 93.2104 156.866 94.2096 156.927L135.252 159.432C137.449 159.566 139.611 158.705 141.334 157.01C143.057 155.315 144.223 152.901 144.615 150.219L156.058 71.8664L156.91 72.1677L159.1 57.3168L158.224 57.0455L161.418 35.1743C161.555 34.2375 161.523 33.2748 161.325 32.3549C161.127 31.435 160.768 30.5805 160.273 29.8523C159.777 29.1242 159.159 28.5403 158.46 28.1424C157.762 27.7444 157.001 27.5422 156.233 27.55L156.231 27.5506Z" fill="#3F3D56"/>
<path d="M121.563 29.9395H116.903C115.565 29.9395 114.267 30.5064 113.224 31.5461C112.182 32.5858 111.458 34.0357 111.173 35.6552L91.8096 145.574C91.698 146.207 91.6981 146.862 91.8098 147.495C91.9215 148.128 92.1421 148.723 92.4567 149.241C92.7713 149.758 93.1723 150.186 93.6325 150.493C94.0926 150.801 94.601 150.983 95.1229 151.025L136.031 154.346C137.186 154.439 138.327 154.004 139.238 153.121C140.149 152.239 140.766 150.972 140.971 149.562L157.494 35.9505C157.601 35.2152 157.576 34.4597 157.422 33.7375C157.267 33.0153 156.987 32.3438 156.6 31.7706C156.213 31.1973 155.729 30.7363 155.183 30.4199C154.636 30.1035 154.04 29.9395 153.437 29.9395H149.016C148.588 29.9394 148.172 30.1141 147.833 30.4365C147.493 30.7588 147.249 31.2109 147.138 31.7226C147.039 32.1746 146.823 32.5738 146.523 32.8584C146.224 33.143 145.856 33.2972 145.478 33.297H124.491C123.751 33.297 123.039 32.9512 122.496 32.3287C121.953 31.7062 121.62 30.853 121.563 29.9395Z" fill="white"/>
<path d="M144.177 106.782C144.257 106.785 144.335 106.753 144.397 106.691C144.459 106.63 144.501 106.542 144.515 106.445L153.562 44.6049C153.57 44.5461 153.569 44.4857 153.557 44.4279C153.545 44.37 153.523 44.316 153.493 44.2695C153.462 44.2234 153.425 44.1861 153.382 44.1602C153.339 44.1343 153.291 44.1205 153.244 44.1197L112.085 43.5176H112.081C112.006 43.5184 111.934 43.5505 111.876 43.6089C111.818 43.6672 111.778 43.7482 111.762 43.8386L101.097 103.672C101.086 103.73 101.086 103.791 101.096 103.849C101.107 103.908 101.127 103.963 101.156 104.01C101.185 104.058 101.221 104.097 101.264 104.125C101.306 104.153 101.352 104.169 101.4 104.172L144.177 106.782Z" fill="#E6E6E6"/>
<path d="M108.46 110.78C108.422 110.78 108.386 110.796 108.357 110.825C108.327 110.854 108.307 110.894 108.298 110.939L107.913 112.985C107.907 113.014 107.907 113.044 107.912 113.073C107.917 113.102 107.927 113.13 107.941 113.154C107.955 113.178 107.973 113.197 107.994 113.212C108.015 113.226 108.038 113.235 108.062 113.237L129.836 115.154C129.877 115.157 129.917 115.142 129.949 115.111C129.981 115.081 130.003 115.037 130.011 114.988L130.382 112.621C130.386 112.592 130.386 112.562 130.38 112.534C130.375 112.505 130.364 112.479 130.35 112.456C130.335 112.432 130.317 112.413 130.296 112.4C130.275 112.386 130.252 112.378 130.229 112.376L108.47 110.781L108.46 110.78Z" fill="#E6E6E6"/>
<path d="M134.914 122.754C134.953 122.757 134.992 122.744 135.024 122.715C135.056 122.687 135.079 122.645 135.088 122.598L135.56 120.226C135.566 120.197 135.567 120.166 135.562 120.137C135.557 120.107 135.548 120.08 135.533 120.055C135.519 120.031 135.501 120.011 135.48 119.997C135.459 119.982 135.435 119.974 135.411 119.971L107.604 117.563C107.566 117.559 107.529 117.571 107.498 117.598C107.467 117.625 107.444 117.664 107.433 117.709L106.943 119.759C106.936 119.788 106.934 119.819 106.938 119.849C106.942 119.88 106.951 119.908 106.965 119.934C106.979 119.959 106.998 119.98 107.019 119.995C107.04 120.01 107.064 120.02 107.089 120.022L134.914 122.754Z" fill="#E6E6E6"/>
<path d="M133.421 130.358C133.46 130.361 133.499 130.348 133.531 130.319C133.563 130.291 133.586 130.249 133.595 130.202L134.067 127.83C134.073 127.801 134.073 127.77 134.069 127.741C134.064 127.711 134.054 127.684 134.04 127.659C134.026 127.635 134.008 127.615 133.986 127.601C133.965 127.586 133.942 127.578 133.918 127.575L106.111 125.167C106.073 125.163 106.035 125.175 106.004 125.202C105.973 125.229 105.951 125.268 105.94 125.313L105.45 127.363C105.443 127.392 105.441 127.423 105.445 127.453C105.449 127.484 105.458 127.512 105.472 127.538C105.486 127.563 105.504 127.584 105.526 127.599C105.547 127.614 105.571 127.624 105.595 127.626L133.421 130.358Z" fill="#E6E6E6"/>
<path d="M85.209 157.126C85.209 158.846 72.4984 159.029 56.8545 160.24C41.2245 161.45 28.5 158.846 28.5 157.126C28.5 155.406 41.2839 151.946 56.8545 154.012C72.4984 156.088 85.209 155.406 85.209 157.126Z" fill="#E6E6E6"/>
<path d="M120.614 143.356C120.654 143.361 120.693 143.348 120.726 143.32C120.758 143.291 120.781 143.249 120.791 143.201L121.788 138.258C121.794 138.229 121.795 138.199 121.79 138.17C121.786 138.141 121.776 138.113 121.762 138.089C121.748 138.065 121.73 138.044 121.709 138.03C121.688 138.015 121.665 138.006 121.641 138.003L104.565 136.225C104.525 136.221 104.486 136.235 104.453 136.265C104.421 136.294 104.398 136.337 104.389 136.385L103.538 141.128C103.533 141.157 103.533 141.186 103.538 141.215C103.542 141.243 103.552 141.27 103.566 141.294C103.58 141.318 103.598 141.337 103.618 141.352C103.639 141.366 103.661 141.375 103.685 141.378L120.614 143.356Z" fill="#6C63FF"/>
<path d="M51.6644 123.215C51.8794 123.033 52.0595 122.794 52.192 122.516C52.3244 122.238 52.4061 121.927 52.4311 121.606C52.4561 121.285 52.4239 120.96 52.3368 120.656C52.2497 120.352 52.1098 120.075 51.9269 119.845L52.6183 100.729L49.0982 101.218L49.3028 119.916C49.0109 120.322 48.8494 120.847 48.8489 121.39C48.8484 121.934 49.009 122.459 49.3003 122.865C49.5915 123.272 49.9931 123.532 50.4289 123.596C50.8646 123.661 51.3043 123.525 51.6646 123.214L51.6644 123.215Z" fill="#A0616A"/>
<path d="M58.0861 155.574L60.0896 156.01L62.0698 146.646L59.4447 146.002L58.0861 155.574Z" fill="#A0616A"/>
<path d="M63.627 159.156L57.3304 157.784L57.7581 154.772L61.6219 155.613C62.2671 155.753 62.8408 156.206 63.2169 156.87C63.5929 157.534 63.7404 158.357 63.627 159.156L63.627 159.156Z" fill="#2F2E41"/>
<path d="M52.5871 156.816H54.6213L55.589 147.098H52.5868L52.5871 156.816Z" fill="#A0616A"/>
<path d="M58.5437 159.156L52.1505 159.156L52.1504 156.097L56.0735 156.097C56.7286 156.097 57.3569 156.419 57.8201 156.993C58.2834 157.566 58.5437 158.344 58.5437 159.156Z" fill="#2F2E41"/>
<path d="M61.0739 153.332C61.0422 153.332 61.0105 153.33 60.979 153.325L58.5847 153.082C58.4757 153.066 58.3704 153.022 58.2753 152.955C58.1802 152.887 58.0972 152.796 58.0313 152.687C57.9655 152.578 57.9182 152.454 57.8923 152.322C57.8664 152.19 57.8625 152.053 57.8807 151.919L60.2576 137.393L58.7642 127.637C58.7521 127.558 58.7172 127.487 58.666 127.437C58.6148 127.387 58.5507 127.361 58.4856 127.365C58.4206 127.369 58.3589 127.402 58.3119 127.458C58.2649 127.514 58.2359 127.589 58.2301 127.67L56.0298 152.459C56.0093 152.721 55.9077 152.962 55.7464 153.132C55.5851 153.302 55.3768 153.388 55.1654 153.371L52.9096 153.267C52.712 153.25 52.5263 153.144 52.3876 152.968C52.249 152.793 52.1669 152.561 52.157 152.316L52.3372 122.359L64.0317 120.549L64.8487 136.176L64.8453 136.192L61.8602 152.566C61.8173 152.784 61.7164 152.978 61.5739 153.117C61.4313 153.256 61.2553 153.332 61.0739 153.332Z" fill="#2F2E41"/>
<path d="M56.1938 88.3424C58.4445 88.3424 60.269 86.0826 60.269 83.295C60.269 80.5074 58.4445 78.2476 56.1938 78.2476C53.9431 78.2476 52.1185 80.5074 52.1185 83.295C52.1185 86.0826 53.9431 88.3424 56.1938 88.3424Z" fill="#A0616A"/>
<path d="M60.0336 124.639C59.3962 124.644 58.7711 124.422 58.2321 124.001C56.2577 122.473 54.0159 123.08 52.8551 123.578C52.7399 123.628 52.617 123.645 52.4957 123.628C52.3745 123.611 52.2579 123.56 52.1547 123.479C52.0527 123.4 51.9666 123.293 51.9026 123.167C51.8387 123.04 51.7988 122.898 51.7857 122.749L49.675 99.3986C49.3212 95.4862 51.224 91.8078 54.1994 90.6522C54.3112 90.6088 54.4249 90.5677 54.5403 90.5289C55.4662 90.218 56.4359 90.1622 57.3811 90.3654C58.3263 90.5686 59.224 91.0259 60.0112 91.705C60.813 92.3916 61.4836 93.2876 61.9757 94.3298C62.4678 95.372 62.7695 96.5351 62.8596 97.7373L64.6368 121.245C64.6489 121.397 64.6323 121.55 64.5883 121.693C64.5444 121.836 64.4742 121.964 64.3834 122.068C63.7602 122.782 61.952 124.639 60.0336 124.639Z" fill="#6C63FF"/>
<path d="M53.6055 104.406L48.8435 103.757C48.708 103.739 48.5773 103.684 48.4603 103.598C48.3433 103.511 48.2428 103.394 48.1655 103.255C48.0883 103.116 48.0362 102.958 48.0127 102.791C47.9893 102.625 47.9951 102.454 48.0297 102.291L49.2419 96.5686C49.2776 96.1397 49.3816 95.7238 49.5479 95.345C49.7141 94.9661 49.9393 94.6319 50.2105 94.3615C50.4817 94.0911 50.7935 93.8899 51.1278 93.7697C51.4621 93.6494 51.8124 93.6124 52.1583 93.6607C52.5043 93.7091 52.839 93.8419 53.1433 94.0515C53.4475 94.2611 53.7152 94.5433 53.9309 94.8817C54.1466 95.2202 54.306 95.6083 54.3998 96.0235C54.4937 96.4387 54.5202 96.8729 54.4778 97.3009L54.6578 103.194C54.663 103.363 54.6387 103.531 54.5866 103.687C54.5346 103.843 54.456 103.983 54.3562 104.098C54.2564 104.213 54.1377 104.3 54.0083 104.354C53.8789 104.407 53.7417 104.425 53.6062 104.406L53.6055 104.406Z" fill="#6C63FF"/>
<path d="M64.6174 122.397C64.813 122.183 64.9684 121.919 65.0728 121.624C65.1772 121.328 65.228 121.008 65.2216 120.685C65.2152 120.362 65.1517 120.045 65.0357 119.756C64.9196 119.467 64.7539 119.213 64.55 119.012L63.3764 99.9326L59.927 100.894L61.9513 119.475C61.701 119.922 61.5917 120.466 61.6441 121.006C61.6965 121.546 61.907 122.043 62.2357 122.403C62.5643 122.763 62.9883 122.962 63.4272 122.96C63.8661 122.959 64.2893 122.759 64.6167 122.397H64.6174Z" fill="#A0616A"/>
<path d="M58.6048 103.207C58.505 103.092 58.4263 102.951 58.3743 102.795C58.3222 102.639 58.298 102.471 58.3031 102.302L58.4832 96.4095C58.4444 95.9837 58.4736 95.5525 58.5693 95.1408C58.665 94.729 58.8253 94.3445 59.0409 94.0095C59.2566 93.6744 59.5234 93.3952 59.8262 93.1878C60.1289 92.9804 60.4617 92.849 60.8055 92.8009C61.1493 92.7528 61.4974 92.7891 61.8299 92.9076C62.1623 93.0261 62.4727 93.2246 62.7433 93.4917C63.0138 93.7588 63.2392 94.0893 63.4067 94.4643C63.5741 94.8393 63.6802 95.2514 63.719 95.6772L64.9313 101.4C64.9659 101.563 64.9717 101.734 64.9482 101.9C64.9248 102.066 64.8727 102.225 64.7954 102.364C64.7182 102.503 64.6176 102.62 64.5006 102.706C64.3836 102.793 64.2529 102.847 64.1174 102.866L59.3554 103.514C59.2199 103.533 59.0827 103.515 58.9533 103.462C58.8238 103.409 58.7052 103.321 58.6055 103.206L58.6048 103.207Z" fill="#6C63FF"/>
<path d="M55.9513 88.5327C55.8787 88.5327 55.8063 88.5223 55.7357 88.5017L55.7149 88.4955C52.132 87.8174 51.34 85.2461 51.1663 84.1727C50.9864 83.0613 51.1912 81.9886 51.6541 81.5718C51.4017 80.5854 51.4422 79.7097 51.7747 78.9697C52.3555 77.6791 53.6133 77.2435 53.7824 77.1892C54.7876 76.2708 55.9902 76.8838 56.209 77.0082C58.1535 76.1173 58.897 76.8587 59.0311 77.0244C59.9002 77.2178 60.43 77.6335 60.6058 78.2607C60.9362 79.4385 59.8915 80.9035 59.8469 80.9654L59.8237 80.9974L58.2673 81.0893C58.1196 81.098 57.9751 81.1451 57.843 81.2275C57.711 81.3099 57.5944 81.4257 57.5008 81.5675C57.4072 81.7093 57.3388 81.8738 57.2999 82.0505C57.2609 82.2272 57.2524 82.412 57.2749 82.593C57.317 82.8265 57.3702 83.0567 57.4342 83.2825C57.6997 84.3112 57.8988 85.1902 57.6423 85.5243C57.5841 85.589 57.5124 85.632 57.4353 85.6486C57.3583 85.6651 57.2791 85.6545 57.2067 85.6178C56.9633 85.5373 56.7982 85.5541 56.7159 85.6682C56.5882 85.8447 56.6272 86.2919 56.8258 86.9269C56.8881 87.1278 56.9049 87.3459 56.8743 87.5577C56.8437 87.7695 56.7669 87.9669 56.6522 88.1285C56.5659 88.2546 56.4585 88.3561 56.3374 88.4259C56.2164 88.4957 56.0845 88.5321 55.951 88.5327H55.9513Z" fill="#2F2E41"/>
</g>
<defs>
<clipPath id="clip0_64_175">
<rect width="133" height="133" fill="white" transform="translate(28.5 27.5498)"/>
</clipPath>
</defs>
</svg>
