<svg width="289" height="175" viewBox="0 0 289 175" fill="none" xmlns="http://www.w3.org/2000/svg">
<path d="M66.1478 167.254C66.2142 169.595 66.6293 171.915 67.381 174.147C67.3977 174.199 67.4162 174.25 67.4342 174.302H72.036C72.0311 174.255 72.0262 174.203 72.0213 174.147C71.7145 170.815 73.4674 150.776 75.5825 147.308C75.3972 147.589 65.791 156.666 66.1478 167.254Z" fill="#F1F1F1"/>
<path d="M203.257 167.946C203.324 170.287 203.739 172.608 204.491 174.839C204.507 174.891 204.526 174.942 204.544 174.994H209.146C209.141 174.947 209.136 174.896 209.131 174.839C208.824 171.507 210.577 151.469 212.692 148C212.507 148.282 202.901 157.359 203.257 167.946Z" fill="#F1F1F1"/>
<path d="M66.4931 174.147C66.5316 174.199 66.5716 174.251 66.6126 174.302H70.065C70.0388 174.258 70.0085 174.206 69.9733 174.147C69.403 173.175 67.715 170.268 66.1481 167.254C64.4649 164.015 62.9194 160.654 63.0495 159.437C63.0092 159.712 61.8439 168.077 66.4931 174.147Z" fill="#F1F1F1"/>
<path d="M203.603 174.839C203.641 174.891 203.681 174.943 203.722 174.994H207.175C207.148 174.95 207.118 174.898 207.083 174.839C206.513 173.867 204.825 170.96 203.258 167.946C201.574 164.708 200.029 161.346 200.159 160.13C200.119 160.404 198.954 168.769 203.603 174.839Z" fill="#F1F1F1"/>
<path d="M240.969 122.754C206.212 108.84 174.768 109.368 145.15 117.861C99.5151 110.332 68.2661 111.497 48.2216 122.754V87.8059H240.969V122.754Z" fill="#CBCBCB"/>
<path d="M240.969 113.143C208.948 99.4375 176.967 98.5527 144.503 113.143C111.252 104.099 79.1078 104.194 48.0367 113.143V6.90216C81.0716 -2.41173 113.206 -2.18791 144.503 6.90216C177.563 -2.15651 209.747 -2.44381 240.969 6.90216V113.143Z" fill="#E5E5E5"/>
<path d="M55.7141 19.0866L54.637 16.4824C55.0592 16.3266 65.1466 12.6427 79.9507 10.7636C93.6377 9.02596 114.03 8.61113 133.451 16.5001L132.282 19.0686C113.51 11.4436 93.7209 11.8452 80.4254 13.5243C65.9539 15.3524 55.8148 19.0494 55.7141 19.0866Z" fill="white"/>
<path d="M55.7141 28.8721L54.637 26.2679C55.0592 26.1121 65.1466 22.4283 79.9507 20.5492C93.6377 18.8117 114.03 18.3968 133.451 26.2857L132.282 28.8542C113.51 21.2292 93.7209 21.6304 80.4254 23.3098C65.9539 25.1379 55.8148 28.8349 55.7141 28.8721Z" fill="white"/>
<path d="M55.7141 38.6574L54.637 36.0532C55.0592 35.8974 65.1466 32.2136 79.9507 30.3345C93.6377 28.5968 114.03 28.182 133.451 36.071L132.282 38.6395C113.51 31.0145 93.7209 31.4157 80.4254 33.0951C65.9539 34.9232 55.8148 38.6202 55.7141 38.6574Z" fill="white"/>
<path d="M55.7141 48.4425L54.637 45.8383C55.0592 45.6825 65.1466 41.9987 79.9507 40.1195C93.6377 38.3822 114.03 37.9669 133.451 45.856L132.282 48.4246C113.51 40.7996 93.7209 41.2009 80.4254 42.8802C65.9539 44.7083 55.8148 48.4053 55.7141 48.4425Z" fill="white"/>
<path d="M55.7141 58.2278L54.637 55.6236C55.0592 55.4678 65.1466 51.784 79.9507 49.9048C93.6377 48.1672 114.03 47.7523 133.451 55.6413L132.282 58.2099C113.51 50.5847 93.7209 50.9862 80.4254 52.6655C65.9539 54.4936 55.8148 58.1906 55.7141 58.2278Z" fill="white"/>
<path d="M55.7141 68.0133L54.637 65.4091C55.0592 65.2533 65.1466 61.5695 79.9507 59.6904C93.6377 57.953 114.03 57.5379 133.451 65.4269L132.282 67.9954C113.51 60.3702 93.7209 60.7719 80.4254 62.451C65.9539 64.2791 55.8148 67.9761 55.7141 68.0133Z" fill="white"/>
<path d="M153.273 89.6325L152.195 87.0283C152.618 86.8725 162.705 83.1887 177.509 81.3096C191.196 79.5722 211.588 79.1571 231.01 87.0461L229.841 89.6146C211.068 81.9894 191.279 82.3911 177.984 84.0702C163.512 85.8983 153.373 89.5953 153.273 89.6325Z" fill="#6C63FF"/>
<path d="M152.364 70.8525V17.4071L153.403 17.1006C179.723 9.33412 205.915 9.33565 231.252 17.1052L232.275 17.4188V70.7813L230.273 70.0673C203.906 60.6669 178.382 60.6613 154.411 70.0508L152.364 70.8525ZM191.418 60.2108C203.806 60.2108 216.438 62.3921 229.315 66.7548V19.4553C205.226 12.2789 180.342 12.2828 155.324 19.4667V66.69C166.819 62.4119 179.063 60.2139 191.418 60.2108Z" fill="white"/>
<path d="M210.377 84.2474L210.764 75.3529L224.063 50.376C224.438 49.6659 225.049 49.0917 225.803 48.7416C226.265 48.524 226.768 48.3956 227.282 48.3639C227.797 48.3321 228.314 48.3977 228.801 48.5566C229.366 48.7406 229.878 49.0454 230.298 49.4472C230.718 49.8489 231.033 50.3368 231.221 50.8728C231.301 51.1043 231.357 51.3425 231.389 51.5842C231.484 52.3014 231.349 53.0289 231.003 53.6736L217.687 78.6843L210.377 84.2474Z" fill="#6C63FF"/>
<path d="M227.459 48.5319L213.024 75.6443L211.923 75.1214L225.885 48.8988C226.374 48.6674 226.912 48.542 227.459 48.5319Z" fill="#3F3D56"/>
<path d="M231.205 51.6067L217.32 77.6857L216.219 77.1628L230.625 50.1066C230.802 50.3619 230.944 50.638 231.045 50.928C231.121 51.1488 231.175 51.3761 231.205 51.6067Z" fill="#3F3D56"/>
<path d="M229.823 49.2796L215.228 76.6917L214.127 76.1688L228.741 48.7223C228.897 48.7726 229.048 48.833 229.195 48.9031C229.417 49.0087 229.627 49.1348 229.823 49.2796Z" fill="#3F3D56"/>
<path d="M212.046 82.753L210.577 83.8704L210.701 80.9245C211.205 81.0898 211.751 81.8069 212.046 82.753Z" fill="#3F3D56"/>
<path d="M67.1892 118.858L65.431 113.82L67.3041 97.2548C67.3556 96.7844 67.5691 96.3431 67.9119 95.9985C68.1211 95.7857 68.3731 95.6144 68.6532 95.4947C68.9333 95.375 69.2359 95.3093 69.5432 95.3014C69.8991 95.2921 70.2524 95.3606 70.5757 95.5016C70.8989 95.6426 71.1834 95.8522 71.4068 96.114C71.5029 96.2272 71.5872 96.3489 71.6586 96.4774C71.8706 96.8587 71.9572 97.2911 71.9073 97.7192L70.0317 114.307L67.1892 118.858Z" fill="#6C63FF"/>
<path d="M68.789 95.5535L66.7558 113.535L66.0258 113.462L67.9923 96.07C68.2139 95.844 68.4861 95.6675 68.789 95.5535Z" fill="#3F3D56"/>
<path d="M71.5611 96.5262L69.6054 113.823L68.8754 113.749L70.9044 95.8045C71.06 95.9117 71.2 96.0378 71.3209 96.1795C71.4126 96.2875 71.4931 96.4036 71.5611 96.5262Z" fill="#3F3D56"/>
<path d="M70.2735 95.5019L68.2178 113.683L67.4879 113.609L69.5461 95.4055C69.6442 95.4027 69.7423 95.4063 69.8398 95.4162C69.987 95.4312 70.1323 95.4599 70.2735 95.5019Z" fill="#3F3D56"/>
<path d="M67.7886 117.694L67.2175 118.608L66.6322 116.941C66.9502 116.933 67.4138 117.225 67.7886 117.694Z" fill="#3F3D56"/>
<path d="M257.63 112.951C257.43 113.282 257.162 113.572 256.843 113.805C256.524 114.039 256.159 114.21 255.77 114.31C254.984 114.513 254.145 114.412 253.437 114.03C252.73 113.648 252.212 113.016 251.998 112.273C251.784 111.53 251.891 110.738 252.295 110.069C252.302 110.058 252.309 110.047 252.316 110.035C252.402 109.899 252.499 109.77 252.605 109.648L250.021 92.2452L249.943 91.7238L249.418 88.1727L249.341 87.6609L249.627 87.6736L254.635 87.8898L255.977 87.947L256.146 91.1865L257.098 109.4C257.596 109.849 257.919 110.444 258.015 111.088C258.112 111.732 257.976 112.388 257.63 112.951H257.63Z" fill="#FFB8B8"/>
<path d="M249.958 91.8816L256.317 91.3306C256.647 91.3011 256.951 91.1496 257.163 90.9092C257.375 90.6688 257.478 90.359 257.449 90.0472L256.271 77.5559C256.158 76.3528 255.543 75.2416 254.562 74.4668C253.581 73.692 252.314 73.3171 251.04 73.4245C249.767 73.5319 248.59 74.1129 247.77 75.0395C246.95 75.9662 246.553 77.1627 246.667 78.3658C246.675 78.4519 246.686 78.5376 246.699 78.6231L248.606 90.8754C248.65 91.1561 248.799 91.4126 249.026 91.5982C249.253 91.7838 249.543 91.8862 249.844 91.8866C249.882 91.8873 249.92 91.8856 249.958 91.8816Z" fill="#CBCBCB"/>
<path d="M254.778 81.7902C255.421 80.0693 255.451 78.1969 254.863 76.4585C254.275 74.7201 253.101 73.211 251.521 72.1613C249.123 70.6115 245.841 70.0552 242.308 74.0291C238.032 78.8804 234.982 84.5883 233.39 90.7194L247.861 92.9448C247.861 92.9448 252.782 87.2621 254.778 81.7902Z" fill="#CBCBCB"/>
<path d="M231.373 171.316H227.247L225.284 156.282H231.373L231.373 171.316Z" fill="#FFB8B8"/>
<path d="M219.29 174.934H232.258V170.202H224.301C222.972 170.202 221.697 170.7 220.758 171.588C219.818 172.475 219.29 173.679 219.29 174.934Z" fill="#2F2E41"/>
<path d="M265.294 167.916L261.377 169.14L254.518 155.448L260.3 153.643L265.294 167.916Z" fill="#FFB8B8"/>
<path d="M255.024 174.935L267.336 171.09L265.763 166.597L258.208 168.956C256.947 169.35 255.902 170.201 255.305 171.322C254.708 172.443 254.607 173.743 255.024 174.935Z" fill="#2F2E41"/>
<path d="M245.694 68.2196C250.259 68.2196 253.96 64.7237 253.96 60.4114C253.96 56.099 250.259 52.6032 245.694 52.6032C241.129 52.6032 237.428 56.099 237.428 60.4114C237.428 64.7237 241.129 68.2196 245.694 68.2196Z" fill="#FFB8B8"/>
<path d="M238.456 167.131L242.288 143.242C242.329 142.987 242.462 142.753 242.665 142.581C242.868 142.409 243.128 142.308 243.401 142.297C243.674 142.286 243.942 142.364 244.16 142.519C244.379 142.674 244.533 142.896 244.597 143.146L250.432 165.913C250.524 166.261 250.751 166.565 251.068 166.764C251.384 166.963 251.768 167.043 252.145 166.989L268.24 164.545C268.453 164.513 268.657 164.438 268.837 164.325C269.017 164.212 269.169 164.064 269.284 163.891C269.398 163.718 269.472 163.523 269.501 163.321C269.529 163.119 269.512 162.913 269.449 162.717L248.462 97.3548C248.402 97.1691 248.395 96.9718 248.441 96.7826L249.14 93.9214C249.217 93.6113 249.181 93.2858 249.039 92.9969C248.897 92.708 248.657 92.4723 248.357 92.3274C245.499 90.9499 238.261 88.0862 232.798 91.223C232.621 91.3252 232.467 91.4604 232.347 91.6203C232.227 91.7803 232.142 91.9617 232.099 92.1535L215.704 164.946C215.659 165.143 215.659 165.348 215.705 165.546C215.75 165.744 215.839 165.93 215.966 166.093C216.094 166.256 216.256 166.391 216.443 166.49C216.629 166.59 216.836 166.65 217.05 166.668L236.824 168.341C236.869 168.345 236.914 168.347 236.958 168.347C237.321 168.346 237.67 168.223 237.945 168C238.219 167.777 238.401 167.469 238.455 167.131L238.456 167.131Z" fill="#2F2E41"/>
<path d="M251.175 54.8944C250.552 54.5404 249.999 54.0864 249.541 53.5529C249.315 53.2833 249.166 52.9633 249.109 52.6236C249.051 52.284 249.088 51.9361 249.214 51.6136C249.632 50.7432 250.873 50.4691 251.835 50.7645C252.796 51.0598 253.539 51.7729 254.242 52.4599C254.861 53.0639 255.497 53.6972 255.79 54.4917C256.082 55.2861 255.933 56.2936 255.202 56.7758C254.486 57.2489 253.455 57.0553 252.766 56.5473C252.115 55.9918 251.596 55.3125 251.243 54.554L251.175 54.8944Z" fill="#2F2E41"/>
<path d="M253.974 52.6698C254.02 50.4699 256.675 48.8921 258.968 49.2822C261.26 49.6722 263.023 51.5187 263.905 53.5552C265.768 57.8581 264.369 62.768 262.574 67.0982C260.778 71.4285 258.555 75.8214 258.818 80.4641C258.995 82.9735 259.886 85.3911 261.398 87.4615C262.909 89.5319 264.984 91.1783 267.404 92.2268C264.817 93.3347 261.724 92.1903 259.55 90.4631C254.721 86.6275 252.857 79.7984 255.121 74.2356C256.237 71.4917 258.204 69.1443 259.74 66.588C261.276 64.0316 262.403 61.0188 261.61 58.1764C260.817 55.3339 257.442 53.0329 254.557 54.1325L253.974 52.6698Z" fill="#2F2E41"/>
<path d="M245.198 63.8763C245.919 62.7261 246.645 61.2161 245.329 60.2105C245.042 60.0018 244.715 59.8494 244.365 59.762C244.015 59.6746 243.651 59.6542 243.293 59.7018C241.808 59.871 240.191 59.9406 238.753 59.431C238.214 59.2558 237.718 58.98 237.294 58.62C236.87 58.2601 236.527 57.8233 236.285 57.3356C235.544 55.6749 236.472 53.6568 238.023 52.607C238.972 51.9882 240.093 51.6477 241.246 51.6285C242.399 51.6092 243.532 51.9119 244.504 52.4986C246.513 51.6603 248.951 52.0332 250.776 53.1872C252.602 54.3412 253.85 56.1893 254.529 58.1625C255.154 59.861 255.262 61.6912 254.84 63.4446C254.5 64.6644 253.854 65.789 252.957 66.723C252.06 67.6571 250.937 68.3732 249.685 68.8106C249.197 68.9924 248.668 69.0499 248.149 68.9773C247.63 68.9048 247.141 68.7048 246.73 68.3973C246.061 67.8312 245.548 67.1207 245.234 66.3265C244.96 65.4563 244.813 64.4909 245.198 63.8763Z" fill="#2F2E41"/>
<path d="M220.677 70.8435C220.718 71.015 220.745 71.1894 220.757 71.3649L235.214 79.2434L238.728 77.3324L242.474 81.965L236.601 85.9192C236.127 86.2387 235.555 86.4042 234.973 86.3908C234.39 86.3774 233.828 86.1858 233.371 85.8448L218.462 74.7351C217.789 74.9705 217.056 75.0069 216.361 74.8392C215.665 74.6716 215.04 74.3079 214.569 73.7966C214.098 73.2853 213.803 72.6505 213.723 71.9768C213.643 71.3031 213.782 70.6223 214.122 70.0251C214.461 69.4279 214.985 68.9426 215.624 68.6336C216.263 68.3246 216.986 68.2067 217.698 68.2956C218.409 68.3844 219.075 68.6758 219.607 69.131C220.139 69.5861 220.511 70.1834 220.675 70.8435L220.677 70.8435Z" fill="#FFB8B8"/>
<path d="M235.698 79.6165L240.37 85.337C240.503 85.4995 240.672 85.6331 240.864 85.7287C241.057 85.8243 241.269 85.8796 241.486 85.8908C241.703 85.9021 241.92 85.869 242.123 85.7939C242.325 85.7188 242.508 85.6034 242.659 85.4555L247.948 80.2669C248.393 79.956 248.769 79.5651 249.053 79.1168C249.338 78.6685 249.527 78.1716 249.608 77.6544C249.689 77.1372 249.661 76.61 249.526 76.103C249.391 75.596 249.151 75.1191 248.821 74.6997C248.491 74.2803 248.076 73.9266 247.6 73.6589C247.125 73.3912 246.598 73.2147 246.051 73.1396C245.503 73.0645 244.945 73.0922 244.409 73.2211C243.872 73.3501 243.368 73.5777 242.925 73.891C242.879 73.9232 242.834 73.9562 242.79 73.9901L236.156 77.4941C235.966 77.5945 235.801 77.7324 235.673 77.8984C235.545 78.0643 235.456 78.2545 235.412 78.4559C235.368 78.6573 235.371 78.8653 235.42 79.0655C235.47 79.2658 235.564 79.4537 235.697 79.6165H235.698Z" fill="#CBCBCB"/>
<path d="M57.1551 170.828L61.6401 170.827L63.774 154.485L57.1543 154.486L57.1551 170.828Z" fill="#A0616A"/>
<path d="M56.011 169.444L64.8437 169.444H64.8441C66.3369 169.444 67.7686 170.004 68.8242 171.001C69.8798 171.998 70.4729 173.351 70.473 174.761V174.934L56.0112 174.934L56.011 169.444Z" fill="#2F2E41"/>
<path d="M22.2327 168.993L26.6673 169.627L31.3632 153.769L25.5493 152.835L22.2327 168.993Z" fill="#A0616A"/>
<path d="M21.3201 167.464L30.0537 168.711L30.0541 168.711C31.5301 168.922 32.8571 169.678 33.743 170.813C34.629 171.948 35.0014 173.369 34.7783 174.763L34.751 174.934L20.4516 172.892L21.3201 167.464Z" fill="#2F2E41"/>
<path d="M36.0613 89.8401L41.0412 91.0726L40.7099 98.6995L40.6688 112.586C41.1594 112.906 41.5355 113.36 41.7472 113.887C41.9589 114.414 41.9963 114.989 41.8545 115.536C41.7127 116.083 41.3983 116.577 40.9529 116.952C40.5076 117.327 39.9522 117.565 39.3603 117.636C38.7684 117.706 38.1679 117.605 37.6382 117.346C37.1085 117.086 36.6746 116.681 36.3938 116.184C36.113 115.687 35.9987 115.121 36.0658 114.561C36.133 114.001 36.3785 113.474 36.7699 113.048L35.2397 99.1114L36.0613 89.8401Z" fill="#A0616A"/>
<path d="M35.1944 81.1043C35.2219 80.3672 35.4735 79.6532 35.9191 79.0476C36.3648 78.442 36.9856 77.9704 37.7074 77.6893C38.3831 77.4037 39.1323 77.3107 39.8631 77.4217C40.594 77.5328 41.2746 77.843 41.8214 78.3143C42.2144 78.646 42.5261 79.0548 42.7347 79.512C42.9433 79.9692 43.0438 80.4639 43.0293 80.9616C43.0424 85.4295 41.9746 91.942 41.9638 92.0071L41.9468 92.1107L34.6678 94.4262L35.1944 81.1043Z" fill="#CBCBCB"/>
<path d="M48.2095 93.7871L59.3429 91.0647L64.4893 107.438L64.6722 168.433L56.1585 168.383L52.5996 119.015L29.9177 164.632L20.7718 163.595L40.7099 114.695C40.7099 114.695 39.6124 106.055 43.0878 101.736L42.3561 97.2429L48.2095 93.7871Z" fill="#2F2E41"/>
<path d="M40.7025 97.8609C40.5469 97.6822 40.4338 97.4739 40.371 97.2502C40.3082 97.0265 40.2972 96.7927 40.3386 96.5646L35.2603 82.1728C35.0232 81.5001 34.998 80.7768 35.1878 80.0907C35.3776 79.4047 35.7741 78.7855 36.3293 78.3083L38.5339 76.4153L40.0279 70.7702L48.6146 72.7529L47.9071 75.4262L51.7932 74.759L59.9784 91.9802L42.8691 98.4403L42.0266 98.4528C41.7732 98.4532 41.5229 98.4003 41.2939 98.2979C41.0648 98.1955 40.8628 98.0462 40.7025 97.8609Z" fill="#CBCBCB"/>
<path d="M52.6207 85.7094L57.5269 84.2366L61.5626 90.8497L69.3855 102.606C69.9815 102.629 70.5561 102.823 71.0331 103.161C71.5102 103.5 71.8672 103.967 72.0571 104.501C72.247 105.035 72.2607 105.611 72.0964 106.153C71.9322 106.695 71.5977 107.177 71.1372 107.535C70.6767 107.893 70.1119 108.111 69.5176 108.159C68.9233 108.208 68.3274 108.085 67.8087 107.806C67.2901 107.528 66.8732 107.107 66.6131 106.6C66.353 106.093 66.2621 105.523 66.3522 104.966L57.1726 93.9599L52.6207 85.7094Z" fill="#A0616A"/>
<path d="M46.9448 78.7635C46.5509 78.1267 46.3595 77.3963 46.3935 76.6595C46.4275 75.9227 46.6853 75.2108 47.1363 74.6087C47.5459 74.0264 48.1265 73.5696 48.8069 73.2945C49.4874 73.0193 50.238 72.9377 50.9668 73.0597C51.4867 73.1416 51.9814 73.3296 52.4164 73.6107C52.8514 73.8918 53.2163 74.2591 53.4856 74.687C56.0249 78.4564 58.8076 84.4998 58.8353 84.5602L58.8795 84.6564L54.0379 90.2887L46.9448 78.7635Z" fill="#CBCBCB"/>
<path d="M46.3808 69.7198C50.1488 69.7198 53.2033 66.8344 53.2033 63.275C53.2033 59.7157 50.1488 56.8302 46.3808 56.8302C42.6129 56.8302 39.5584 59.7157 39.5584 63.275C39.5584 66.8344 42.6129 69.7198 46.3808 69.7198Z" fill="#A0616A"/>
<path d="M34.3241 60.5562C37.9536 60.5562 40.8959 57.7768 40.8959 54.3482C40.8959 50.9197 37.9536 48.1403 34.3241 48.1403C30.6947 48.1403 27.7524 50.9197 27.7524 54.3482C27.7524 57.7768 30.6947 60.5562 34.3241 60.5562Z" fill="#2F2E41"/>
<path d="M28.6556 59.4888C29.5062 60.0695 30.4916 60.4494 31.5295 60.5966C32.5674 60.7438 33.6275 60.6541 34.6211 60.335C35.6147 60.0158 36.513 59.4765 37.2408 58.7622C37.9685 58.0478 38.5046 57.1793 38.8041 56.2291C38.6908 57.0806 38.3918 57.9006 37.926 58.6375C37.4602 59.3743 36.8378 60.0119 36.098 60.51C35.3582 61.0082 34.5171 61.356 33.6278 61.5315C32.7385 61.7071 31.8204 61.7066 30.9313 61.53C30.0422 61.3535 29.2016 61.0047 28.4624 60.5058C27.7232 60.0068 27.1016 59.3685 26.6367 58.6312C26.1719 57.8938 25.8739 57.0734 25.7616 56.2218C25.6494 55.3702 25.7252 54.5058 25.9844 53.6833C25.8372 54.7883 26.0075 55.9105 26.4775 56.9319C26.9475 57.9534 27.6998 58.8366 28.6556 59.4888Z" fill="#2F2E41"/>
<path d="M54.5907 59.4956C53.4434 57.5554 53.0044 56.7449 51.5252 55.5651C50.2171 54.5217 48.6081 54.2152 47.3103 55.2039C45.775 54.5773 44.0667 54.4352 42.4391 54.7988C40.8115 55.1623 39.3515 56.0121 38.2759 57.2219C37.2003 58.4317 36.5666 59.937 36.4687 61.5142C36.3709 63.0914 36.8143 64.6563 37.7329 65.9765C38.6516 67.2967 39.9966 68.3017 41.5681 68.8424C43.1395 69.383 44.8537 69.4303 46.456 68.9773C48.0582 68.5244 49.463 67.5953 50.4618 66.328C51.4605 65.0608 51.9999 63.523 51.9998 61.9431C51.9986 61.6657 51.9809 61.3885 51.9468 61.113C53.0749 60.9633 53.4626 59.6453 54.5907 59.4956Z" fill="#2F2E41"/>
<path d="M119.687 175H0.313317C0.23022 175 0.150526 174.963 0.0917681 174.898C0.0330098 174.832 0 174.743 0 174.651C0 174.558 0.0330098 174.469 0.0917681 174.404C0.150526 174.338 0.23022 174.301 0.313317 174.301H119.687C119.77 174.301 119.85 174.338 119.909 174.404C119.967 174.469 120 174.558 120 174.651C120 174.743 119.967 174.832 119.909 174.898C119.85 174.963 119.77 175 119.687 175Z" fill="#CBCBCB"/>
<path d="M287.995 175H168.621C168.538 175 168.458 174.963 168.399 174.898C168.341 174.832 168.308 174.743 168.308 174.651C168.308 174.558 168.341 174.469 168.399 174.404C168.458 174.338 168.538 174.301 168.621 174.301H287.995C288.078 174.301 288.157 174.338 288.216 174.404C288.275 174.469 288.308 174.558 288.308 174.651C288.308 174.743 288.275 174.832 288.216 174.898C288.157 174.963 288.078 175 287.995 175Z" fill="#CBCBCB"/>
</svg>
